<svg xmlns="http://www.w3.org/2000/svg" viewBox="0 0 295.3 156.2">
  <defs>
    <style>
      .a{fill:#ff810a}.b{opacity:.6}.e{fill:#6bc4ff}.d{opacity:.15}
    </style>
  </defs>
  <path class="a" d="M185.1 52.5l-3.4-6.8 3.4-6.7h6.7l3.4 6.7-3.4 6.8h-6.7z"/>
  <g class="b">
    <path class="a" d="M185.1 97.7l-3.4-6.7 3.4-6.7h6.7l3.4 6.7-3.4 6.7h-6.7z"/>
  </g>
  <path opacity=".15" fill="#6bc4ff" d="M0 133.7h295.3v22.48H0z"/>
  <g class="d">
    <path class="e" d="M7.4 19.3L4 12.5l3.4-6.7h6.8l3.3 6.7-3.3 6.8H7.4z"/>
  </g>
  <g class="d">
    <path class="e" d="M7.4 34.4L4 27.6l3.4-6.7h6.8l3.3 6.7-3.3 6.8H7.4z"/>
  </g>
  <g class="d">
    <path class="e" d="M7.4 49.4L4 42.7 7.4 36h6.8l3.3 6.7-3.3 6.7H7.4z"/>
  </g>
  <g class="d">
    <path class="e" d="M7.4 64.5L4 57.8 7.4 51h6.8l3.3 6.8-3.3 6.7H7.4z"/>
  </g>
  <g class="d">
    <path class="e" d="M7.4 79.6L4 72.9l3.4-6.8h6.8l3.3 6.8-3.3 6.7H7.4z"/>
  </g>
  <g class="d">
    <path class="e" d="M7.4 94.7L4 87.9l3.4-6.7h6.8l3.3 6.7-3.3 6.8H7.4z"/>
  </g>
  <g class="d">
    <path class="e" d="M7.4 109.8L4 103l3.4-6.7h6.8l3.3 6.7-3.3 6.8H7.4z"/>
  </g>
  <g class="d">
    <path class="e" d="M7.4 124.8L4 118.1l3.4-6.7h6.8l3.3 6.7-3.3 6.7H7.4z"/>
  </g>
  <g class="d">
    <path class="e" d="M19.2 26.8l-3.4-6.7 3.4-6.8h6.7l3.4 6.8-3.4 6.7h-6.7z"/>
  </g>
  <g class="d">
    <path class="e" d="M19.2 41.9l-3.4-6.7 3.4-6.8h6.7l3.4 6.8-3.4 6.7h-6.7z"/>
  </g>
  <g class="d">
    <path class="e" d="M19.2 57l-3.4-6.8 3.4-6.7h6.7l3.4 6.7-3.4 6.8h-6.7z"/>
  </g>
  <g class="d">
    <path class="e" d="M19.2 72.1l-3.4-6.8 3.4-6.7h6.7l3.4 6.7-3.4 6.8h-6.7z"/>
  </g>
  <g class="d">
    <path class="e" d="M19.2 87.1l-3.4-6.7 3.4-6.7h6.7l3.4 6.7-3.4 6.7h-6.7z"/>
  </g>
  <g class="d">
    <path class="e" d="M19.2 102.2l-3.4-6.7 3.4-6.8h6.7l3.4 6.8-3.4 6.7h-6.7z"/>
  </g>
  <g class="d">
    <path class="e" d="M19.2 132.4l-3.4-6.8 3.4-6.7h6.7l3.4 6.7-3.4 6.8h-6.7z"/>
  </g>
  <g class="d">
    <path class="e" d="M31.4 18.5L28 11.7 31.4 5h6.7l3.4 6.7-3.4 6.8h-6.7z"/>
  </g>
  <g class="d">
    <path class="e" d="M31.4 33.6L28 26.8l3.4-6.7h6.7l3.4 6.7-3.4 6.8h-6.7z"/>
  </g>
  <g class="d">
    <path class="e" d="M31.4 48.6L28 41.9l3.4-6.7h6.7l3.4 6.7-3.4 6.7h-6.7z"/>
  </g>
  <g class="d">
    <path class="e" d="M31.4 63.7L28 57l3.4-6.8h6.7l3.4 6.8-3.4 6.7h-6.7z"/>
  </g>
  <g class="d">
    <path class="e" d="M31.4 78.8L28 72.1l3.4-6.8h6.7l3.4 6.8-3.4 6.7h-6.7z"/>
  </g>
  <g class="d">
    <path class="e" d="M31.4 93.9L28 87.1l3.4-6.7h6.7l3.4 6.7-3.4 6.8h-6.7z"/>
  </g>
  <g class="d">
    <path class="e" d="M31.4 109l-3.4-6.8 3.4-6.7h6.7l3.4 6.7-3.4 6.8h-6.7z"/>
  </g>
  <g class="d">
    <path class="e" d="M31.4 124l-3.4-6.7 3.4-6.7h6.7l3.4 6.7-3.4 6.7h-6.7z"/>
  </g>
  <g class="d">
    <path class="e" d="M42.9 25.2l-3.3-6.7 3.3-6.7h6.8l3.4 6.7-3.4 6.7h-6.8z"/>
  </g>
  <g class="d">
    <path class="e" d="M42.9 40.3l-3.3-6.7 3.3-6.8h6.8l3.4 6.8-3.4 6.7h-6.8z"/>
  </g>
  <g class="d">
    <path class="e" d="M42.9 70.5l-3.3-6.8 3.3-6.7h6.8l3.4 6.7-3.4 6.8h-6.8z"/>
  </g>
  <g class="d">
    <path class="e" d="M42.9 85.6l-3.3-6.8 3.3-6.7h6.8l3.4 6.7-3.4 6.8h-6.8z"/>
  </g>
  <g class="d">
    <path class="e" d="M42.9 100.6l-3.3-6.7 3.3-6.7h6.8l3.4 6.7-3.4 6.7h-6.8z"/>
  </g>
  <g class="d">
    <path class="e" d="M42.9 115.7l-3.3-6.7 3.3-6.8h6.8l3.4 6.8-3.4 6.7h-6.8z"/>
  </g>
  <g class="d">
    <path class="e" d="M42.9 130.8l-3.3-6.7 3.3-6.8h6.8l3.4 6.8-3.4 6.7h-6.8z"/>
  </g>
  <g class="d">
    <path class="e" d="M54.5 17.7l-3.3-6.8 3.3-6.7h6.8l3.4 6.7-3.4 6.8h-6.8z"/>
  </g>
  <g class="d">
    <path class="e" d="M54.5 32.8L51.2 26l3.3-6.7h6.8l3.4 6.7-3.4 6.8h-6.8z"/>
  </g>
  <g class="d">
    <path class="e" d="M54.5 47.8l-3.3-6.7 3.3-6.7h6.8l3.4 6.7-3.4 6.7h-6.8z"/>
  </g>
  <g class="d">
    <path class="e" d="M54.5 62.9l-3.3-6.7 3.3-6.8h6.8l3.4 6.8-3.4 6.7h-6.8z"/>
  </g>
  <g class="d">
    <path class="e" d="M54.5 78l-3.3-6.7 3.3-6.8h6.8l3.4 6.8-3.4 6.7h-6.8z"/>
  </g>
  <g class="d">
    <path class="e" d="M54.5 93.1l-3.3-6.8 3.3-6.7h6.8l3.4 6.7-3.4 6.8h-6.8z"/>
  </g>
  <g class="d">
    <path class="e" d="M54.5 108.1l-3.3-6.7 3.3-6.7h6.8l3.4 6.7-3.4 6.7h-6.8z"/>
  </g>
  <g class="d">
    <path class="e" d="M54.5 123.2l-3.3-6.7 3.3-6.7h6.8l3.4 6.7-3.4 6.7h-6.8z"/>
  </g>
  <g class="d">
    <path class="e" d="M66.7 25.2l-3.3-6.7 3.3-6.7h6.8l3.4 6.7-3.4 6.7h-6.8z"/>
  </g>
  <g class="d">
    <path class="e" d="M66.7 40.3l-3.3-6.7 3.3-6.8h6.8l3.4 6.8-3.4 6.7h-6.8z"/>
  </g>
  <g class="d">
    <path class="e" d="M66.7 55.4l-3.3-6.7 3.3-6.8h6.8l3.4 6.8-3.4 6.7h-6.8z"/>
  </g>
  <g class="d">
    <path class="e" d="M66.7 70.5l-3.3-6.8 3.3-6.7h6.8l3.4 6.7-3.4 6.8h-6.8z"/>
  </g>
  <g class="d">
    <path class="e" d="M66.7 100.6l-3.3-6.7 3.3-6.7h6.8l3.4 6.7-3.4 6.7h-6.8z"/>
  </g>
  <g class="d">
    <path class="e" d="M66.7 115.7l-3.3-6.7 3.3-6.8h6.8l3.4 6.8-3.4 6.7h-6.8z"/>
  </g>
  <g class="d">
    <path class="e" d="M66.7 130.8l-3.3-6.7 3.3-6.8h6.8l3.4 6.8-3.4 6.7h-6.8z"/>
  </g>
  <g class="d">
    <path class="e" d="M78.3 17.7L75 10.9l3.3-6.7h6.8l3.4 6.7-3.4 6.8h-6.8z"/>
  </g>
  <g class="d">
    <path class="e" d="M78.3 32.8L75 26l3.3-6.7h6.8l3.4 6.7-3.4 6.8h-6.8z"/>
  </g>
  <g class="d">
    <path class="e" d="M78.3 47.8L75 41.1l3.3-6.7h6.8l3.4 6.7-3.4 6.7h-6.8z"/>
  </g>
  <g class="d">
    <path class="e" d="M78.3 62.9L75 56.2l3.3-6.8h6.8l3.4 6.8-3.4 6.7h-6.8z"/>
  </g>
  <g class="d">
    <path class="e" d="M78.3 78L75 71.3l3.3-6.8h6.8l3.4 6.8-3.4 6.7h-6.8z"/>
  </g>
  <g class="d">
    <path class="e" d="M78.3 93.1L75 86.3l3.3-6.7h6.8l3.4 6.7-3.4 6.8h-6.8z"/>
  </g>
  <g class="d">
    <path class="e" d="M78.3 108.1l-3.3-6.7 3.3-6.7h6.8l3.4 6.7-3.4 6.7h-6.8z"/>
  </g>
  <g class="d">
    <path class="e" d="M78.3 123.2l-3.3-6.7 3.3-6.7h6.8l3.4 6.7-3.4 6.7h-6.8z"/>
  </g>
  <g class="d">
    <path class="e" d="M90.5 24.4l-3.3-6.7 3.3-6.7h6.8l3.4 6.7-3.4 6.7h-6.8z"/>
  </g>
  <g class="d">
    <path class="e" d="M90.5 39.5l-3.3-6.7 3.3-6.8h6.8l3.4 6.8-3.4 6.7h-6.8z"/>
  </g>
  <g class="d">
    <path class="e" d="M90.5 54.6l-3.3-6.7 3.3-6.8h6.8l3.4 6.8-3.4 6.7h-6.8z"/>
  </g>
  <g class="d">
    <path class="e" d="M90.5 69.7l-3.3-6.8 3.3-6.7h6.8l3.4 6.7-3.4 6.8h-6.8z"/>
  </g>
  <g class="d">
    <path class="e" d="M90.5 84.8L87.2 78l3.3-6.7h6.8l3.4 6.7-3.4 6.8h-6.8z"/>
  </g>
  <g class="d">
    <path class="e" d="M90.5 99.8l-3.3-6.7 3.3-6.7h6.8l3.4 6.7-3.4 6.7h-6.8z"/>
  </g>
  <g class="d">
    <path class="e" d="M90.5 114.9l-3.3-6.7 3.3-6.8h6.8l3.4 6.8-3.4 6.7h-6.8z"/>
  </g>
  <g class="d">
    <path class="e" d="M90.5 130l-3.3-6.7 3.3-6.8h6.8l3.4 6.8-3.4 6.7h-6.8z"/>
  </g>
  <g class="d">
    <path class="e" d="M196.5 15.1l-3.3-6.8 3.3-6.7h6.8l3.4 6.7-3.4 6.8h-6.8z"/>
  </g>
  <g class="d">
    <path class="e" d="M196.5 30.2l-3.3-6.8 3.3-6.7h6.8l3.4 6.7-3.4 6.8h-6.8z"/>
  </g>
  <g class="d">
    <path class="e" d="M196.5 45.2l-3.3-6.7 3.3-6.7h6.8l3.4 6.7-3.4 6.7h-6.8z"/>
  </g>
  <g class="d">
    <path class="e" d="M196.5 60.3l-3.3-6.7 3.3-6.8h6.8l3.4 6.8-3.4 6.7h-6.8z"/>
  </g>
  <g class="d">
    <path class="e" d="M196.5 75.4l-3.3-6.7 3.3-6.8h6.8l3.4 6.8-3.4 6.7h-6.8z"/>
  </g>
  <g class="d">
    <path class="e" d="M196.5 90.5l-3.3-6.8 3.3-6.7h6.8l3.4 6.7-3.4 6.8h-6.8z"/>
  </g>
  <g class="d">
    <path class="e" d="M196.5 105.6l-3.3-6.8 3.3-6.7h6.8l3.4 6.7-3.4 6.8h-6.8z"/>
  </g>
  <g class="d">
    <path class="e" d="M196.5 120.6l-3.3-6.7 3.3-6.7h6.8l3.4 6.7-3.4 6.7h-6.8z"/>
  </g>
  <g class="d">
    <path class="e" d="M208.3 22.6l-3.4-6.7 3.4-6.8h6.7l3.4 6.8-3.4 6.7h-6.7z"/>
  </g>
  <g class="d">
    <path class="e" d="M208.3 37.7l-3.4-6.7 3.4-6.8h6.7l3.4 6.8-3.4 6.7h-6.7z"/>
  </g>
  <g class="d">
    <path class="e" d="M208.3 52.8l-3.4-6.8 3.4-6.7h6.7l3.4 6.7-3.4 6.8h-6.7z"/>
  </g>
  <g class="d">
    <path class="e" d="M208.3 67.9l-3.4-6.8 3.4-6.7h6.7l3.4 6.7-3.4 6.8h-6.7z"/>
  </g>
  <g class="d">
    <path class="e" d="M208.3 82.9l-3.4-6.7 3.4-6.7h6.7l3.4 6.7-3.4 6.7h-6.7z"/>
  </g>
  <g class="d">
    <path class="e" d="M208.3 98l-3.4-6.7 3.4-6.8h6.7l3.4 6.8L215 98h-6.7z"/>
  </g>
  <g class="d">
    <path class="e" d="M208.3 113.1l-3.4-6.7 3.4-6.8h6.7l3.4 6.8-3.4 6.7h-6.7z"/>
  </g>
  <g class="d">
    <path class="e" d="M208.3 128.2l-3.4-6.8 3.4-6.7h6.7l3.4 6.7-3.4 6.8h-6.7z"/>
  </g>
  <g class="d">
    <path class="e" d="M220.5 14.3l-3.4-6.8 3.4-6.7h6.7l3.4 6.7-3.4 6.8h-6.7z"/>
  </g>
  <g class="d">
    <path class="e" d="M220.5 29.4l-3.4-6.8 3.4-6.7h6.7l3.4 6.7-3.4 6.8h-6.7z"/>
  </g>
  <g class="d">
    <path class="e" d="M220.5 44.4l-3.4-6.7 3.4-6.7h6.7l3.4 6.7-3.4 6.7h-6.7z"/>
  </g>
  <g class="d">
    <path class="e" d="M220.5 59.5l-3.4-6.7 3.4-6.8h6.7l3.4 6.8-3.4 6.7h-6.7z"/>
  </g>
  <g class="d">
    <path class="e" d="M220.5 74.6l-3.4-6.7 3.4-6.8h6.7l3.4 6.8-3.4 6.7h-6.7z"/>
  </g>
  <g class="d">
    <path class="e" d="M220.5 89.7l-3.4-6.8 3.4-6.7h6.7l3.4 6.7-3.4 6.8h-6.7z"/>
  </g>
  <g class="d">
    <path class="e" d="M220.5 104.8l-3.4-6.8 3.4-6.7h6.7l3.4 6.7-3.4 6.8h-6.7z"/>
  </g>
  <g class="d">
    <path class="e" d="M220.5 119.8l-3.4-6.7 3.4-6.7h6.7l3.4 6.7-3.4 6.7h-6.7z"/>
  </g>
  <g class="d">
    <path class="e" d="M232.1 21l-3.4-6.7 3.4-6.7h6.7l3.4 6.7-3.4 6.7h-6.7z"/>
  </g>
  <g class="d">
    <path class="e" d="M232.1 36.1l-3.4-6.7 3.4-6.8h6.7l3.4 6.8-3.4 6.7h-6.7z"/>
  </g>
  <g class="b">
    <path class="a" d="M232.1 51.2l-3.4-6.7 3.4-6.8h6.7l3.4 6.8-3.4 6.7h-6.7z"/>
  </g>
  <g class="d">
    <path class="e" d="M232.1 66.3l-3.4-6.8 3.4-6.7h6.7l3.4 6.7-3.4 6.8h-6.7z"/>
  </g>
  <g class="d">
    <path class="e" d="M232.1 81.4l-3.4-6.8 3.4-6.7h6.7l3.4 6.7-3.4 6.8h-6.7z"/>
  </g>
  <g class="d">
    <path class="e" d="M232.1 96.4l-3.4-6.7 3.4-6.7h6.7l3.4 6.7-3.4 6.7h-6.7z"/>
  </g>
  <g class="d">
    <path class="e" d="M232.1 111.5l-3.4-6.7 3.4-6.8h6.7l3.4 6.8-3.4 6.7h-6.7z"/>
  </g>
  <g class="d">
    <path class="e" d="M232.1 126.6l-3.4-6.7 3.4-6.8h6.7l3.4 6.8-3.4 6.7h-6.7z"/>
  </g>
  <g class="d">
    <path class="e" d="M243.7 13.5l-3.4-6.8 3.4-6.7h6.7l3.4 6.7-3.4 6.8h-6.7z"/>
  </g>
  <g class="d">
    <path class="e" d="M243.7 28.6l-3.4-6.8 3.4-6.7h6.7l3.4 6.7-3.4 6.8h-6.7z"/>
  </g>
  <g class="d">
    <path class="e" d="M243.7 43.6l-3.4-6.7 3.4-6.7h6.7l3.4 6.7-3.4 6.7h-6.7z"/>
  </g>
  <g class="d">
    <path class="e" d="M243.7 58.7l-3.4-6.7 3.4-6.8h6.7l3.4 6.8-3.4 6.7h-6.7z"/>
  </g>
  <g class="d">
    <path class="e" d="M243.7 73.8l-3.4-6.7 3.4-6.8h6.7l3.4 6.8-3.4 6.7h-6.7z"/>
  </g>
  <g class="d">
    <path class="e" d="M243.7 88.9l-3.4-6.8 3.4-6.7h6.7l3.4 6.7-3.4 6.8h-6.7z"/>
  </g>
  <path class="a" d="M243.7 103.9l-3.4-6.7 3.4-6.7h6.7l3.4 6.7-3.4 6.7h-6.7z"/>
  <g class="d">
    <path class="e" d="M243.7 119l-3.4-6.7 3.4-6.7h6.7l3.4 6.7-3.4 6.7h-6.7z"/>
  </g>
  <g class="d">
    <path class="e" d="M255.9 21l-3.4-6.7 3.4-6.7h6.7l3.4 6.7-3.4 6.7h-6.7z"/>
  </g>
  <g class="d">
    <path class="e" d="M255.9 36.1l-3.4-6.7 3.4-6.8h6.7l3.4 6.8-3.4 6.7h-6.7z"/>
  </g>
  <g class="d">
    <path class="e" d="M255.9 51.2l-3.4-6.7 3.4-6.8h6.7l3.4 6.8-3.4 6.7h-6.7z"/>
  </g>
  <g class="d">
    <path class="e" d="M255.9 66.3l-3.4-6.8 3.4-6.7h6.7l3.4 6.7-3.4 6.8h-6.7z"/>
  </g>
  <g class="d">
    <path class="e" d="M255.9 81.4l-3.4-6.8 3.4-6.7h6.7l3.4 6.7-3.4 6.8h-6.7z"/>
  </g>
  <g class="d">
    <path class="e" d="M255.9 96.4l-3.4-6.7 3.4-6.7h6.7l3.4 6.7-3.4 6.7h-6.7z"/>
  </g>
  <g class="d">
    <path class="e" d="M255.9 111.5l-3.4-6.7 3.4-6.8h6.7l3.4 6.8-3.4 6.7h-6.7z"/>
  </g>
  <g class="d">
    <path class="e" d="M255.9 126.6l-3.4-6.7 3.4-6.8h6.7l3.4 6.8-3.4 6.7h-6.7z"/>
  </g>
  <g class="d">
    <path class="e" d="M267.5 13.5l-3.4-6.8 3.4-6.7h6.7l3.4 6.7-3.4 6.8h-6.7z"/>
  </g>
  <g class="d">
    <path class="e" d="M267.5 28.6l-3.4-6.8 3.4-6.7h6.7l3.4 6.7-3.4 6.8h-6.7z"/>
  </g>
  <g class="d">
    <path class="e" d="M267.5 43.6l-3.4-6.7 3.4-6.7h6.7l3.4 6.7-3.4 6.7h-6.7z"/>
  </g>
  <g class="d">
    <path class="e" d="M267.5 58.7l-3.4-6.7 3.4-6.8h6.7l3.4 6.8-3.4 6.7h-6.7z"/>
  </g>
  <g class="d">
    <path class="e" d="M267.5 73.8l-3.4-6.7 3.4-6.8h6.7l3.4 6.8-3.4 6.7h-6.7z"/>
  </g>
  <g class="d">
    <path class="e" d="M267.5 88.9l-3.4-6.8 3.4-6.7h6.7l3.4 6.7-3.4 6.8h-6.7z"/>
  </g>
  <g class="d">
    <path class="e" d="M267.5 103.9l-3.4-6.7 3.4-6.7h6.7l3.4 6.7-3.4 6.7h-6.7z"/>
  </g>
  <g class="d">
    <path class="e" d="M267.5 119l-3.4-6.7 3.4-6.7h6.7l3.4 6.7-3.4 6.7h-6.7z"/>
  </g>
  <g class="d">
    <path class="e" d="M279.7 20.2l-3.4-6.7 3.4-6.7h6.7l3.4 6.7-3.4 6.7h-6.7z"/>
  </g>
  <g class="d">
    <path class="e" d="M279.7 35.3l-3.4-6.7 3.4-6.8h6.7l3.4 6.8-3.4 6.7h-6.7z"/>
  </g>
  <g class="d">
    <path class="e" d="M279.7 50.4l-3.4-6.7 3.4-6.8h6.7l3.4 6.8-3.4 6.7h-6.7z"/>
  </g>
  <g class="d">
    <path class="e" d="M279.7 65.5l-3.4-6.8 3.4-6.7h6.7l3.4 6.7-3.4 6.8h-6.7z"/>
  </g>
  <g class="d">
    <path class="e" d="M279.7 80.6l-3.4-6.8 3.4-6.7h6.7l3.4 6.7-3.4 6.8h-6.7z"/>
  </g>
  <g class="d">
    <path class="e" d="M279.7 95.6l-3.4-6.7 3.4-6.7h6.7l3.4 6.7-3.4 6.7h-6.7z"/>
  </g>
  <g class="d">
    <path class="e" d="M279.7 110.7l-3.4-6.7 3.4-6.8h6.7l3.4 6.8-3.4 6.7h-6.7z"/>
  </g>
  <g class="d">
    <path class="e" d="M279.7 125.8l-3.4-6.7 3.4-6.8h6.7l3.4 6.8-3.4 6.7h-6.7z"/>
  </g>
  <g class="d">
    <path class="e" d="M102 17.2l-3.4-6.8 3.4-6.7h6.7l3.4 6.7-3.4 6.8H102z"/>
  </g>
  <g class="d">
    <path class="e" d="M102 32.3l-3.4-6.8 3.4-6.7h6.7l3.4 6.7-3.4 6.8H102z"/>
  </g>
  <g class="d">
    <path class="e" d="M102 47.3l-3.4-6.7 3.4-6.7h6.7l3.4 6.7-3.4 6.7H102z"/>
  </g>
  <g class="d">
    <path class="e" d="M102 62.4l-3.4-6.7 3.4-6.8h6.7l3.4 6.8-3.4 6.7H102z"/>
  </g>
  <g class="d">
    <path class="e" d="M102 77.5l-3.4-6.7L102 64h6.7l3.4 6.8-3.4 6.7H102z"/>
  </g>
  <g class="d">
    <path class="e" d="M102 92.6l-3.4-6.8 3.4-6.7h6.7l3.4 6.7-3.4 6.8H102z"/>
  </g>
  <g class="d">
    <path class="e" d="M102 107.6l-3.4-6.7 3.4-6.7h6.7l3.4 6.7-3.4 6.7H102z"/>
  </g>
  <g class="d">
    <path class="e" d="M102 122.7l-3.4-6.7 3.4-6.7h6.7l3.4 6.7-3.4 6.7H102z"/>
  </g>
  <g class="d">
    <path class="e" d="M113.7 24.7l-3.4-6.7 3.4-6.8h6.8l3.3 6.8-3.3 6.7h-6.8z"/>
  </g>
  <g class="d">
    <path class="e" d="M113.7 39.8l-3.4-6.7 3.4-6.8h6.8l3.3 6.8-3.3 6.7h-6.8z"/>
  </g>
  <g class="d">
    <path class="e" d="M113.7 70l-3.4-6.8 3.4-6.7h6.8l3.3 6.7-3.3 6.8h-6.8z"/>
  </g>
  <g class="d">
    <path class="e" d="M113.7 85l-3.4-6.7 3.4-6.7h6.8l3.3 6.7-3.3 6.7h-6.8z"/>
  </g>
  <g class="d">
    <path class="e" d="M113.7 100.1l-3.4-6.7 3.4-6.8h6.8l3.3 6.8-3.3 6.7h-6.8z"/>
  </g>
  <g class="d">
    <path class="e" d="M113.7 115.2l-3.4-6.7 3.4-6.8h6.8l3.3 6.8-3.3 6.7h-6.8z"/>
  </g>
  <g class="d">
    <path class="e" d="M113.7 130.3l-3.4-6.8 3.4-6.7h6.8l3.3 6.7-3.3 6.8h-6.8z"/>
  </g>
  <g class="d">
    <path class="e" d="M125.9 16.4l-3.4-6.8 3.4-6.7h6.8l3.3 6.7-3.3 6.8h-6.8z"/>
  </g>
  <g class="d">
    <path class="e" d="M125.9 31.4l-3.4-6.7 3.4-6.7h6.8l3.3 6.7-3.3 6.7h-6.8z"/>
  </g>
  <g class="d">
    <path class="e" d="M125.9 46.5l-3.4-6.7 3.4-6.7h6.8l3.3 6.7-3.3 6.7h-6.8z"/>
  </g>
  <g class="d">
    <path class="e" d="M125.9 61.6l-3.4-6.7 3.4-6.8h6.8l3.3 6.8-3.3 6.7h-6.8z"/>
  </g>
  <g class="d">
    <path class="e" d="M125.9 76.7l-3.4-6.8 3.4-6.7h6.8l3.3 6.7-3.3 6.8h-6.8z"/>
  </g>
  <g class="d">
    <path class="e" d="M125.9 91.8l-3.4-6.8 3.4-6.7h6.8L136 85l-3.3 6.8h-6.8z"/>
  </g>
  <g class="d">
    <path class="e" d="M125.9 106.8l-3.4-6.7 3.4-6.7h6.8l3.3 6.7-3.3 6.7h-6.8z"/>
  </g>
  <g class="d">
    <path class="e" d="M125.9 121.9l-3.4-6.7 3.4-6.7h6.8l3.3 6.7-3.3 6.7h-6.8z"/>
  </g>
  <g class="d">
    <path class="e" d="M137.5 23.1l-3.4-6.7 3.4-6.7h6.8l3.3 6.7-3.3 6.7h-6.8z"/>
  </g>
  <g class="d">
    <path class="e" d="M137.5 38.2l-3.4-6.7 3.4-6.8h6.8l3.3 6.8-3.3 6.7h-6.8z"/>
  </g>
  <g class="d">
    <path class="e" d="M137.5 53.3l-3.4-6.7 3.4-6.8h6.8l3.3 6.8-3.3 6.7h-6.8z"/>
  </g>
  <g class="d">
    <path class="e" d="M137.5 68.4l-3.4-6.8 3.4-6.7h6.8l3.3 6.7-3.3 6.8h-6.8z"/>
  </g>
  <g class="d">
    <path class="e" d="M137.5 83.4l-3.4-6.7 3.4-6.7h6.8l3.3 6.7-3.3 6.7h-6.8z"/>
  </g>
  <g class="d">
    <path class="e" d="M137.5 98.5l-3.4-6.7 3.4-6.7h6.8l3.3 6.7-3.3 6.7h-6.8z"/>
  </g>
  <path class="a" d="M137.5 113.6l-3.4-6.7 3.4-6.8h6.8l3.3 6.8-3.3 6.7h-6.8z"/>
  <g class="d">
    <path class="e" d="M137.5 128.7l-3.4-6.7 3.4-6.8h6.8l3.3 6.8-3.3 6.7h-6.8z"/>
  </g>
  <g class="d">
    <path class="e" d="M149.1 15.6l-3.4-6.8 3.4-6.7h6.8l3.3 6.7-3.3 6.8h-6.8z"/>
  </g>
  <g class="d">
    <path class="e" d="M149.1 30.6l-3.4-6.7 3.4-6.7h6.8l3.3 6.7-3.3 6.7h-6.8z"/>
  </g>
  <g class="d">
    <path class="e" d="M149.1 45.7l-3.4-6.7 3.4-6.7h6.8l3.3 6.7-3.3 6.7h-6.8z"/>
  </g>
  <g class="d">
    <path class="e" d="M149.1 60.8l-3.4-6.7 3.4-6.8h6.8l3.3 6.8-3.3 6.7h-6.8z"/>
  </g>
  <g class="d">
    <path class="e" d="M149.1 75.9l-3.4-6.8 3.4-6.7h6.8l3.3 6.7-3.3 6.8h-6.8z"/>
  </g>
  <g class="b">
    <path class="a" d="M19.2 117.3l-3.4-6.7 3.4-6.8h6.7l3.4 6.8-3.4 6.7h-6.7z"/>
  </g>
  <g class="b">
    <path class="a" d="M42.9 55.4l-3.3-6.7 3.3-6.8h6.8l3.4 6.8-3.4 6.7h-6.8z"/>
  </g>
  <path class="a" d="M66.7 85.6l-3.3-6.8 3.3-6.7h6.8l3.4 6.7-3.4 6.8h-6.8zM113.7 54.9l-3.4-6.8 3.4-6.7h6.8l3.3 6.7-3.3 6.8h-6.8z"/>
  <g class="b">
    <path class="a" d="M149.1 91l-3.4-6.8 3.4-6.7h6.8l3.3 6.7-3.3 6.8h-6.8z"/>
  </g>
  <g class="d">
    <path class="e" d="M149.1 106l-3.4-6.7 3.4-6.7h6.8l3.3 6.7-3.3 6.7h-6.8z"/>
  </g>
  <g class="d">
    <path class="e" d="M149.1 121.1l-3.4-6.7 3.4-6.8h6.8l3.3 6.8-3.3 6.7h-6.8z"/>
  </g>
  <g class="d">
    <path class="e" d="M161.3 23.1l-3.4-6.7 3.4-6.7h6.8l3.3 6.7-3.3 6.7h-6.8z"/>
  </g>
  <g class="d">
    <path class="e" d="M161.3 38.2l-3.4-6.7 3.4-6.8h6.8l3.3 6.8-3.3 6.7h-6.8z"/>
  </g>
  <g class="d">
    <path class="e" d="M161.3 53.3l-3.4-6.7 3.4-6.8h6.8l3.3 6.8-3.3 6.7h-6.8z"/>
  </g>
  <g class="d">
    <path class="e" d="M161.3 68.4l-3.4-6.8 3.4-6.7h6.8l3.3 6.7-3.3 6.8h-6.8z"/>
  </g>
  <g class="d">
    <path class="e" d="M161.3 83.4l-3.4-6.7 3.4-6.7h6.8l3.3 6.7-3.3 6.7h-6.8z"/>
  </g>
  <g class="d">
    <path class="e" d="M161.3 98.5l-3.4-6.7 3.4-6.7h6.8l3.3 6.7-3.3 6.7h-6.8z"/>
  </g>
  <g class="d">
    <path class="e" d="M161.3 113.6l-3.4-6.7 3.4-6.8h6.8l3.3 6.8-3.3 6.7h-6.8z"/>
  </g>
  <g class="d">
    <path class="e" d="M161.3 128.7l-3.4-6.7 3.4-6.8h6.8l3.3 6.8-3.3 6.7h-6.8z"/>
  </g>
  <g class="d">
    <path class="e" d="M172.9 15.6l-3.4-6.8 3.4-6.7h6.7l3.4 6.7-3.4 6.8h-6.7z"/>
  </g>
  <g class="d">
    <path class="e" d="M172.9 30.6l-3.4-6.7 3.4-6.7h6.7l3.4 6.7-3.4 6.7h-6.7z"/>
  </g>
  <g class="d">
    <path class="e" d="M172.9 45.7l-3.4-6.7 3.4-6.7h6.7L183 39l-3.4 6.7h-6.7z"/>
  </g>
  <g class="d">
    <path class="e" d="M172.9 60.8l-3.4-6.7 3.4-6.8h6.7l3.4 6.8-3.4 6.7h-6.7z"/>
  </g>
  <g class="d">
    <path class="e" d="M172.9 75.9l-3.4-6.8 3.4-6.7h6.7l3.4 6.7-3.4 6.8h-6.7z"/>
  </g>
  <g class="d">
    <path class="e" d="M172.9 91l-3.4-6.8 3.4-6.7h6.7l3.4 6.7-3.4 6.8h-6.7z"/>
  </g>
  <g class="d">
    <path class="e" d="M172.9 106l-3.4-6.7 3.4-6.7h6.7l3.4 6.7-3.4 6.7h-6.7z"/>
  </g>
  <g class="d">
    <path class="e" d="M172.9 121.1l-3.4-6.7 3.4-6.8h6.7l3.4 6.8-3.4 6.7h-6.7z"/>
  </g>
  <g class="d">
    <path class="e" d="M185.1 22.3l-3.4-6.7 3.4-6.7h6.7l3.4 6.7-3.4 6.7h-6.7z"/>
  </g>
  <g class="d">
    <path class="e" d="M185.1 37.4l-3.4-6.7 3.4-6.8h6.7l3.4 6.8-3.4 6.7h-6.7z"/>
  </g>
  <g class="d">
    <path class="e" d="M185.1 67.6l-3.4-6.8 3.4-6.7h6.7l3.4 6.7-3.4 6.8h-6.7z"/>
  </g>
  <g class="d">
    <path class="e" d="M185.1 82.6l-3.4-6.7 3.4-6.7h6.7l3.4 6.7-3.4 6.7h-6.7z"/>
  </g>
  <g class="d">
    <path class="e" d="M185.1 112.8l-3.4-6.7 3.4-6.8h6.7l3.4 6.8-3.4 6.7h-6.7z"/>
  </g>
  <g class="d">
    <path class="e" d="M185.1 127.9l-3.4-6.8 3.4-6.7h6.7l3.4 6.7-3.4 6.8h-6.7z"/>
  </g>
  <path class="e" d="M285.9 152.5h-18v-1.2h17.5l3.9-4v-3.7l-3.9-4h-17.5v-1.2h18l4.6 4.7v4.7l-4.6 4.7z"/>
  <path class="e" d="M268.4 141.8h2.3v7.3h-2.3zM272 141.8h2.3v7.3H272zM275.7 141.8h2.3v7.3h-2.3zM279.4 141.8h2.3v7.3h-2.3zM283 141.8h2.3v7.3H283zM27.4 152.5h-18l-4.6-4.7v-4.7l4.6-4.7h18v1.2H9.9l-3.9 4v3.7l3.9 4h17.5v1.2z"/>
  <path class="e" d="M24.6 141.8h2.3v7.3h-2.3zM20.9 141.8h2.3v7.3h-2.3zM17.3 141.8h2.3v7.3h-2.3zM13.6 141.8h2.3v7.3h-2.3zM9.9 141.8h2.3v7.3H9.9zM143.4 145.4a4.1 4.1 0 014.2-4.1 4.2 4.2 0 110 8.3 4.2 4.2 0 01-4.2-4.2z"/>
  <path class="e" d="M147.6 152.6a7.2 7.2 0 117.2-7.2 7.1 7.1 0 01-7.2 7.2zm0-13.6a6.5 6.5 0 106.5 6.4 6.4 6.4 0 00-6.5-6.4zM158.6 138.8v13.3h4.5l4.4-4.4v-4.5l-4.4-4.4zM172.2 138.8v13.3h4.5l4.4-4.4v-4.5l-4.4-4.4zM136.6 138.8v13.3h-4.4l-4.4-4.4v-4.5l4.4-4.4zM123 138.8v13.3h-4.4l-4.4-4.4v-4.5l4.4-4.4zM190.2 144.8h69.1v1.2h-69.1z"/>
  <path class="e" d="M196 142.4v6.1h-6.1v-6.1zM253.4 148.5v-6.1h6.2v6.1zM36 144.8h69.1v1.2H36z"/>
  <path class="e" d="M41.9 142.4v6.1h-6.2v-6.1zM99.3 148.5v-6.1h6.1v6.1z"/>
</svg>
