<svg xmlns="http://www.w3.org/2000/svg" width="100%" height="100%" viewBox="0 0 61.1 19">
  <defs>
    <clipPath id="a">
      <path class="a" d="M31.9 12.4h.2c.1-.1 0-.1-.1-.1h-.3c-.1.1 0 .1.1.1h.1z"/>
    </clipPath>
    <clipPath id="b">
      <path class="a" d="M35 11.9a4.8 4.8 0 01-2.9.6h-.3c-.1 0-.2 0-.1-.1h.3c.1 0 .2 0 .1.1a4.8 4.8 0 002.9-.6l.5-.3a2 2 0 00.7-.6l.6-.7.5-.7a3.2 3.2 0 00.3-.9 1.9 1.9 0 00.2-.7 2.5 2.5 0 00.1-.9v-1c-.1-.3-.1-.6-.2-.9a6.3 6.3 0 00-.4-.9 4.2 4.2 0 00-.8-1.2 2.3 2.3 0 00-.7-.7l-.6-.5a9.5 9.5 0 00-1.8-.7 6.6 6.6 0 00-1.7-.2h-.8l-.8.2-.7.2h-.3l-.5.3a2.4 2.4 0 00-.8.6 2.2 2.2 0 00-.6.7l-.6.7c0 .1-.2.4-.4.9a2.2 2.2 0 00-.3.9 5.1 5.1 0 01-.1 1 6.8 6.8 0 00.2 1.6 4.1 4.1 0 00.2.9c.2.5.4.9.5.9l.5.7.3.4.8.6a2.7 2.7 0 001 .6l1.1.4h1.2a4.5 4.5 0 001.2 0l1.1-.3.5-.2z"/>
    </clipPath>
    <clipPath id="c">
      <path class="a" d="M31.4 1.3c.2 3.7.3 7.4.5 11.1.1-3.7.3-7.4.4-11.1h-.9z"/>
    </clipPath>
    <clipPath id="d">
      <path class="a" d="M32.3 1.3l-.4 11c.1-3.6.3-7.3.4-11z"/>
    </clipPath>
    <clipPath id="e">
      <path class="a" d="M31.9 12.4l.4-11c-.1 0-.4.1-.6 0h-.3c.2 3.6.3 7.3.5 11z"/>
    </clipPath>
    <clipPath id="f">
      <path class="a" d="M31 12.7a5.6 5.6 0 002-.1 2.9 2.9 0 001.1-.3c.3 0 .5-.2.9-.4a4.8 4.8 0 002.3-4.1 6.4 6.4 0 00-5-6.4c-.1 0-.4.1-.6 0h.4c.2 0 .3.1.2.2a6.4 6.4 0 015 6.4 4.8 4.8 0 01-2.3 3.9l.3-.2.5-.3.6-.6a7.4 7.4 0 00.9-1.2 6.9 6.9 0 01.3-.8 9.3 9.3 0 00.3-1 9.6 9.6 0 000-1.7c-.1-.3-.2-1-.5-1.8a5.6 5.6 0 01-.5-.8l-.6-.7-.7-.6-.8-.5-1.4-.5a7.2 7.2 0 00-1.9-.2l-1.6.3-1 .4c0 .1-.4.2-.6.4l-.8.7-.6.6c-.1.2-.2.3-.2.5l-.5.8-.3.9c0 .5-.1.8-.1 1a11.9 11.9 0 00.1 1.5 9.2 9.2 0 01.3.9 4.8 4.8 0 00.4.8 5.9 5.9 0 001.8 1.9 6.4 6.4 0 002.6 1z"/>
    </clipPath>
    <style>
      .a{fill:#00b7ff}.c{isolation:isolate}.j{opacity:.47}
    </style>
  </defs>
  <g class="c" opacity=".32">
    <g class="c">
      <path class="a" d="M31.9 12.4h.2c.1-.1 0-.1-.1-.1h-.3c-.1.1 0 .1.1.1h.1z"/>
      <g class="c" clip-path="url(#a)">
        <path class="a" d="M31.9 12.4h-.1c-.1 0-.2 0-.1-.1h.3c.1 0 .2 0 .1.1zM32.1 12.5h-.3c-.1 0-.2 0-.1-.1h.3c.1 0 .2 0 .1.1zM32.1 12.4zM31.9 12.4z"/>
      </g>
    </g>
    <g class="c">
      <path class="a" d="M35 11.9a4.8 4.8 0 01-2.9.6h-.3c-.1 0-.2 0-.1-.1h.3c.1 0 .2 0 .1.1a4.8 4.8 0 002.9-.6l.5-.3a2 2 0 00.7-.6l.6-.7.5-.7a3.2 3.2 0 00.3-.9 1.9 1.9 0 00.2-.7 2.5 2.5 0 00.1-.9v-1c-.1-.3-.1-.6-.2-.9a6.3 6.3 0 00-.4-.9 4.2 4.2 0 00-.8-1.2 2.3 2.3 0 00-.7-.7l-.6-.5a9.5 9.5 0 00-1.8-.7 6.6 6.6 0 00-1.7-.2h-.8l-.8.2-.7.2h-.3l-.5.3a2.4 2.4 0 00-.8.6 2.2 2.2 0 00-.6.7l-.6.7c0 .1-.2.4-.4.9a2.2 2.2 0 00-.3.9 5.1 5.1 0 01-.1 1 6.8 6.8 0 00.2 1.6 4.1 4.1 0 00.2.9c.2.5.4.9.5.9l.5.7.3.4.8.6a2.7 2.7 0 001 .6l1.1.4h1.2a4.5 4.5 0 001.2 0l1.1-.3.5-.2z"/>
      <g class="c" clip-path="url(#b)">
        <path class="a" d="M35 11.9a6.2 6.2 0 01-6.7-.3A6.1 6.1 0 0126 5.2a6.2 6.2 0 0111.3-1 5.8 5.8 0 01-2.3 7.7 4.8 4.8 0 01-2.9.6c.1-.1 0-.1-.1-.1h-.3c-.1.1 0 .1.1.1h.3a4.8 4.8 0 002.9-.6z"/>
        <path class="a" d="M32.1 12.5c.1-.1 0-.1-.1-.1h-.3c-.1.1 0 .1.1.1h.3a4.8 4.8 0 002.9-.6l-.3.2-.5.2h-3.4l-1.2-.4h-.3l-.7-.4-.3-.2-.5-.3-.3-.3-.3-.4-.3-.3-.3-.5-.2-.4a.8.8 0 00-.2-.4v-.1c-.1-.2-.1-.4-.2-.5v-.5a4.3 4.3 0 01-.1-.5v-.4a1.3 1.3 0 01.1-.6v-.4l.2-.5v-.4l.2-.5.2-.4.3-.4.3-.3.3-.4.3-.3.5-.4.3-.2h.2l.3-.2.5-.2h3c0 .1.1.1.2.1h.2a4.9 4.9 0 011.6.5l.3.2.6.3.3.3.4.4.3.3c.1.1.3.3.3.4l.3.4a.8.8 0 01.2.4l.2.4.2.5v.4a4.3 4.3 0 00.1.5v1c0 .2-.1.5-.1.7l-.2.4a4.3 4.3 0 00-.1.5l-.2.4-.2.4-.2.3-.3.4-.3.3-.4.4-.3.2-.5.3a4.8 4.8 0 01-2.9.6z"/>
        <path class="a" d="M32.4 12.5a8.8 8.8 0 001.5-.5 2.9 2.9 0 001-.7 3.5 3.5 0 001-2.3 4.3 4.3 0 00-3.1-3.9c-3.6-1.3-7.1 1.7-5.7 4.8.4.9 1.8 2.9 5.3 2.6a3.9 3.9 0 002.6-.6l-.3.2-.5.2h-3.4l-1.2-.4h-.3l-.7-.4-.3-.2-.5-.3-.3-.3-.3-.4-.3-.3-.3-.5-.2-.4a.8.8 0 00-.2-.4v-.1c-.1-.2-.1-.4-.2-.5v-.5a4.3 4.3 0 01-.1-.5v-.4a1.3 1.3 0 01.1-.6v-.4l.2-.5v-.4l.2-.5.2-.4.3-.4.3-.3.3-.4.3-.3.5-.4.3-.2h.2l.3-.2.5-.2h3c0 .1.1.1.2.1h.2a4.9 4.9 0 011.6.5l.3.2.6.3.3.3.4.4.3.3c.1.1.3.3.3.4l.3.4a.8.8 0 01.2.4l.2.4.2.5v.4a4.3 4.3 0 00.1.5v1c0 .2-.1.5-.1.7l-.2.4a4.3 4.3 0 00-.1.5l-.2.4-.2.4-.2.3-.3.4-.3.3-.4.4-.3.2-.5.3a3.9 3.9 0 01-2.6.6z"/>
        <path class="a" d="M32.7 12.5h.2a3.7 3.7 0 002.4-5.9c-1.9-2.4-5.6-2.8-7.6-.7s.6 7.5 5 6.6a4.4 4.4 0 002.3-.6l-.3.2-.5.2h-3.4l-1.2-.4h-.3l-.7-.4-.3-.2-.5-.3-.3-.3-.3-.4-.3-.3-.3-.5-.2-.4a.8.8 0 00-.2-.4v-.1c-.1-.2-.1-.4-.2-.5v-.5a4.3 4.3 0 01-.1-.5v-.4a1.3 1.3 0 01.1-.6v-.4l.2-.5v-.4l.2-.5.2-.4.3-.4.3-.3.3-.4.3-.3.5-.4.3-.2h.2l.3-.2.5-.2h3c0 .1.1.1.2.1h.2a4.9 4.9 0 011.6.5l.3.2.6.3.3.3.4.4.3.3c.1.1.3.3.3.4l.3.4a.8.8 0 01.2.4l.2.4.2.5v.4a4.3 4.3 0 00.1.5v1c0 .2-.1.5-.1.7l-.2.4a4.3 4.3 0 00-.1.5l-.2.4-.2.4-.2.3-.3.4-.3.3-.4.4-.3.2-.5.3a4.4 4.4 0 01-2.3.6z"/>
        <path class="a" d="M33.1 12.5c3.8-1 4.3-5.4.7-7.4s-8 .4-7.1 4 3.9 4.1 6.4 3.4a3.3 3.3 0 001.9-.6l-.3.2-.5.2h-3.4l-1.2-.4h-.3l-.7-.4-.3-.2-.5-.3-.3-.3-.3-.4-.3-.3-.3-.5-.2-.4a.8.8 0 00-.2-.4v-.1c-.1-.2-.1-.4-.2-.5v-.5a4.3 4.3 0 01-.1-.5v-.4a1.3 1.3 0 01.1-.6v-.4l.2-.5v-.4l.2-.5.2-.4.3-.4.3-.3.3-.4.3-.3.5-.4.3-.2h.2l.3-.2.5-.2h3c0 .1.1.1.2.1h.2a4.9 4.9 0 011.6.5l.3.2.6.3.3.3.4.4.3.3c.1.1.3.3.3.4l.3.4a.8.8 0 01.2.4l.2.4.2.5v.4a4.3 4.3 0 00.1.5v1c0 .2-.1.5-.1.7l-.2.4a4.3 4.3 0 00-.1.5l-.2.4-.2.4-.2.3-.3.4-.3.3-.4.4-.3.2-.5.3a3.3 3.3 0 01-1.9.6z"/>
        <path class="a" d="M33.4 12.5c4.1-1.3 3.8-6 .4-7.7s-8.5.9-7.1 4.7 4.3 3.7 6.7 3a5.2 5.2 0 001.6-.6l-.3.2-.5.2h-3.4l-1.2-.4h-.3l-.7-.4-.3-.2-.5-.3-.3-.3-.3-.4-.3-.3-.3-.5-.2-.4a.8.8 0 00-.2-.4v-.1c-.1-.2-.1-.4-.2-.5v-.5a4.3 4.3 0 01-.1-.5v-.4a1.3 1.3 0 01.1-.6v-.4l.2-.5v-.4l.2-.5.2-.4.3-.4.3-.3.3-.4.3-.3.5-.4.3-.2h.2l.3-.2.5-.2h3c0 .1.1.1.2.1h.2a4.9 4.9 0 011.6.5l.3.2.6.3.3.3.4.4.3.3c.1.1.3.3.3.4l.3.4a.8.8 0 01.2.4l.2.4.2.5v.4a4.3 4.3 0 00.1.5v1c0 .2-.1.5-.1.7l-.2.4a4.3 4.3 0 00-.1.5l-.2.4-.2.4-.2.3-.3.4-.3.3-.4.4-.3.2-.5.3a5.2 5.2 0 01-1.6.6z"/>
        <path class="a" d="M33.7 12.4c3.8-1.3 3.9-6 .1-7.9s-8.5.9-7.3 4.7 4.6 4.2 7.2 3.2a3.5 3.5 0 001.3-.5l-.3.2-.5.2h-3.4l-1.2-.4h-.3l-.7-.4-.3-.2-.5-.3-.3-.3-.3-.4-.3-.3-.3-.5-.2-.4a.8.8 0 00-.2-.4v-.1c-.1-.2-.1-.4-.2-.5v-.5a4.3 4.3 0 01-.1-.5v-.4a1.3 1.3 0 01.1-.6v-.4l.2-.5v-.4l.2-.5.2-.4.3-.4.3-.3.3-.4.3-.3.5-.4.3-.2h.2l.3-.2.5-.2h3c0 .1.1.1.2.1h.2a4.9 4.9 0 011.6.5l.3.2.6.3.3.3.4.4.3.3c.1.1.3.3.3.4l.3.4a.8.8 0 01.2.4l.2.4.2.5v.4a4.3 4.3 0 00.1.5v1c0 .2-.1.5-.1.7l-.2.4a4.3 4.3 0 00-.1.5l-.2.4-.2.4-.2.3-.3.4-.3.3-.4.4-.3.2-.5.3a3.5 3.5 0 01-1.3.5z"/>
        <path class="a" d="M34 12.4c3.8-1.6 3.7-6.3-.2-8.1S25 5.5 26.5 9.4s4.9 4 7.5 3l1-.5-.3.2-.5.2h-3.4l-1.2-.4h-.3l-.7-.4-.3-.2-.5-.3-.3-.3-.3-.4-.3-.3-.3-.5-.2-.4a.8.8 0 00-.2-.4v-.1c-.1-.2-.1-.4-.2-.5v-.5a4.3 4.3 0 01-.1-.5v-.4a1.3 1.3 0 01.1-.6v-.4l.2-.5v-.4l.2-.5.2-.4.3-.4.3-.3.3-.4.3-.3.5-.4.3-.2h.2l.3-.2.5-.2h3c0 .1.1.1.2.1h.2a4.9 4.9 0 011.6.5l.3.2.6.3.3.3.4.4.3.3c.1.1.3.3.3.4l.3.4a.8.8 0 01.2.4l.2.4.2.5v.4a4.3 4.3 0 00.1.5v1c0 .2-.1.5-.1.7l-.2.4a4.3 4.3 0 00-.1.5l-.2.4-.2.4-.2.3-.3.4-.3.3-.4.4-.3.2-.5.3-1 .5z"/>
        <path class="a" d="M33.1 12.6l1.2-.3.7-.4-.3.2-.5.2h-1.1z"/>
        <path class="a" d="M34.3 12.3c3.9-1.9 3.4-6.9-1-8.5s-8.5 2-6.7 5.9a7.2 7.2 0 001.3 1.7l-.4-.4-.3-.4-.3-.3-.3-.5-.2-.4a.8.8 0 00-.2-.4v-.4c-.1-.2-.1-.4-.2-.5v-.5a4.3 4.3 0 01-.1-.5v-.4a1.3 1.3 0 01.1-.6v-.4l.2-.5v-.4l.2-.5.2-.4.3-.4.3-.3.3-.4.3-.3.5-.4.3-.2h.2l.3-.2.5-.2h3c0 .1.1.1.2.1h.2a4.9 4.9 0 011.6.5l.3.2.6.3.3.3.4.4.3.3c.1.1.3.3.3.4l.3.4a.8.8 0 01.2.4l.2.4.2.5v.4a4.3 4.3 0 00.1.5v1c0 .2-.1.5-.1.7l-.2.4a4.3 4.3 0 00-.1.5l-.2.4-.2.4-.2.3-.3.4-.3.3-.4.4-.3.2-.5.3-.7.4z"/>
        <path class="a" d="M34.1 12.3l.5-.2.4-.2-.3.2-.5.2h-.1z"/>
        <path class="a" d="M34.6 12.1c3.7-1.9 3.3-7.1-1.7-8.7s-8.3 2.2-6.4 6.2c.1.1.2.4.6.9l-.3-.4-.2-.3-.2-.4a.8.8 0 00-.2-.4v-.4c-.1-.2-.1-.4-.2-.5v-.5a4.3 4.3 0 01-.1-.5v-.4a1.3 1.3 0 01.1-.6v-.4l.2-.5v-.4l.2-.5.2-.4.3-.4.3-.3.3-.4.3-.3.5-.4.3-.2h.2l.3-.2.5-.2h3c0 .1.1.1.2.1h.2a4.9 4.9 0 011.6.5l.3.2.6.3.3.3.4.4.3.3c.1.1.3.3.3.4l.3.4a.8.8 0 01.2.4l.2.4.2.5v.4a4.3 4.3 0 00.1.5v1c0 .2-.1.5-.1.7l-.2.4a4.3 4.3 0 00-.1.5l-.2.4-.2.4-.2.3-.3.4-.3.3-.4.4-.3.2-.5.3-.4.2zM34.9 12z"/>
        <path class="a" d="M34.9 12c4-2.4 2.7-7.8-2.2-8.9s-8.2 2.8-6.2 6.5l-.2-.4v-.6c-.1-.2-.1-.4-.2-.5v-.5a4.3 4.3 0 01-.1-.5v-.4a1.3 1.3 0 01.1-.6v-.4l.2-.5v-.4l.2-.5.2-.4.3-.4.3-.3.3-.4.3-.3.5-.4.3-.2h.2l.3-.2.5-.2h3c0 .1.1.1.2.1h.1a4.9 4.9 0 011.6.5l.3.2.6.3.3.3.4.4.3.3c.1.1.3.3.3.4l.3.4a.8.8 0 01.2.4l.2.4.2.5v.4a4.3 4.3 0 00.1.5v1c0 .2-.1.5-.1.7l-.2.4a4.3 4.3 0 00-.1.5l-.2.4-.2.4-.2.3-.3.4-.3.3-.4.4-.3.2-.5.3z"/>
        <path class="a" d="M36 11.2c3.6-3.5.1-8.5-4.6-8.6s-6.3 2.4-5.3 6v-.4H26v-.6a4.3 4.3 0 01-.1-.5v-.4a1.3 1.3 0 01.1-.6v-.4l.2-.5v-.4l.2-.5.2-.4.3-.4.3-.3.3-.4.3-.3.5-.4.3-.2h.2l.3-.2.5-.2h3c0 .1.1.1.2.1h.2a4.9 4.9 0 011.6.5l.3.2.6.3.3.3.4.4.3.3c.1.1.3.3.3.4l.3.4a.8.8 0 01.2.4l.2.4.2.5v.4a4.3 4.3 0 00.1.5v1c0 .2-.1.5-.1.7l-.2.4a4.3 4.3 0 00-.1.5l-.2.4-.2.4-.2.3-.3.4-.3.3-.4.4.2-.2z"/>
        <path class="a" d="M37.1 9.9c2.4-4.1-2.6-8.9-7.7-7.3a4.7 4.7 0 00-3.6 4.8v-.7a1.3 1.3 0 01.1-.6v-.4l.2-.5v-.4l.2-.5.2-.4.3-.4.3-.3.3-.4.3-.3.5-.4.3-.2h.2l.3-.2.5-.2h3c0 .1.1.1.2.1h.3a4.9 4.9 0 011.6.5l.3.2.6.3.3.3.4.4.3.3c.1.1.3.3.3.4l.3.4a.8.8 0 01.2.4l.2.4.2.5v.4a4.3 4.3 0 00.1.5v1c0 .2-.1.5-.1.7l-.2.4a4.3 4.3 0 00-.1.5l-.2.4-.2.4-.2.3h-.1l.2-.2.2-.3z"/>
        <path class="a" d="M32.1 12.4h-.7c-4.1-.3-5.6-4.2-3.3-6.4s7.6-.8 7.6 3-3.1 3.5-3.6 3.3z"/>
        <path class="a" d="M32.9 12.2c-3.8.9-7.1-2.4-5.2-5.3s6.9-2.2 7.7 1.5a3.2 3.2 0 01-2.5 3.8z"/>
        <path class="a" d="M33.3 12c-3.4 1.3-7-1.5-5.8-4.5s6.4-2.8 7.6.4a3.2 3.2 0 01-1.8 4.1z"/>
        <path class="a" d="M33.7 11.6c-2.3 1.5-6.9 0-6.2-3.4s5.1-3.7 7-1.1a3.2 3.2 0 01-.8 4.5z"/>
        <path class="a" d="M33.5 11.6c-2.5 1.4-6.6-.4-5.8-3.4s4.8-3.4 6.5-1.1a3 3 0 01-.7 4.5z"/>
        <path class="a" d="M33.8 11.2c-1.9 1.7-6.1.5-6-2.4s4.3-4.1 6.2-1.7a2.9 2.9 0 01-.2 4.1z"/>
        <path class="a" d="M33.6 11.1c-2 1.6-5.8.4-5.6-2.4s3.9-3.8 5.8-1.6a2.7 2.7 0 01-.2 4z"/>
        <path class="a" d="M33.7 10.6c-1.4 1.8-5 1.3-5.5-1.3s2.4-4 4.6-2.9a2.8 2.8 0 01.9 4.2z"/>
        <path class="a" d="M33.8 10.1a2.9 2.9 0 01-5.3-.6c-.7-2.3 2-4.2 4.3-3a2.6 2.6 0 011 3.6z"/>
        <path class="a" d="M33.6 10.1a2.7 2.7 0 01-5-.9c-.4-2.6 2.6-3.7 4.5-2.3a2.3 2.3 0 01.5 3.2z"/>
        <path class="a" d="M33.4 10.1a2.6 2.6 0 01-4.7-1.3 2.3 2.3 0 011.2-2.1 2.6 2.6 0 011.9-.3 4 4 0 011.3.6 2.2 2.2 0 01.3 3.1z"/>
        <path class="a" d="M33.6 9.5a2.5 2.5 0 01-4.7-.4c-.4-1.6 1.6-3.5 3.9-2.2a2 2 0 01.8 2.6z"/>
        <path class="a" d="M33.4 9.5a2.7 2.7 0 01-2.1 1.3 2.3 2.3 0 01-2.2-1.7 2 2 0 01.8-2.1 2.3 2.3 0 012.8 0 1.9 1.9 0 01.7 2.5z"/>
        <path class="a" d="M33.4 9.3a2.4 2.4 0 01-2.1 1.3 2.6 2.6 0 01-2.1-1.5 1.9 1.9 0 01.7-2 2.3 2.3 0 012.7-.1 1.9 1.9 0 01.8 2.3z"/>
        <path class="a" d="M33.2 9.5a2.2 2.2 0 01-2 .9 1.8 1.8 0 01-1.8-1.3 1.7 1.7 0 01.5-1.9 2.2 2.2 0 012.5-.2 1.8 1.8 0 01.8 2.5z"/>
        <path class="a" d="M33 9.5a2.2 2.2 0 01-1.8.8l-.7-.2-.7-.5a2.8 2.8 0 01-.4-1.2c0-1.2 1.4-1.6 1.4-1.6a2.1 2.1 0 012.3.9 1.7 1.7 0 01-.1 1.8z"/>
        <path class="a" d="M32.9 9.5a2.5 2.5 0 01-1.1.7h-.6l-.5-.2a1.6 1.6 0 01-1.2-1.6 1.5 1.5 0 01.4-1l.9-.5h1a5.7 5.7 0 011.2.7 1.7 1.7 0 01-.1 1.9z"/>
        <path class="a" d="M32.8 9.5a1.7 1.7 0 01-1 .5c-.5.1-.5.1-1.4-.2a1.4 1.4 0 01-.8-1.4 1.6 1.6 0 01.4-.9l.8-.5h1l1.1.6a1.5 1.5 0 01-.1 1.9z"/>
        <path class="a" d="M32.7 9.5a3.1 3.1 0 01-.9.4h-.7c-.8-.3-.8-.4-.9-.5a1.1 1.1 0 01-.5-1.1 2.7 2.7 0 01.3-.8l.8-.5h1l.9.5a1.4 1.4 0 010 1.9z"/>
        <path class="a" d="M32.6 9.4l-.8.4h-.7l-.8-.4-.4-.4a.7.7 0 01-.1-.6l.2-.7.8-.5h1l.8.5c.2.2.8.8 0 1.8z"/>
        <path class="a" d="M32.6 9.2a2.8 2.8 0 01-.8.5h-.7a1.9 1.9 0 01-.8-.5L30 9c-.1-.2-.2-.5-.1-.6a2.1 2.1 0 01.3-.7 1.5 1.5 0 01.6-.5h1l.7.4a1.1 1.1 0 01.1 1.6z"/>
        <path class="a" d="M32.6 9.1l-.8.6h-.7c-.4-.1-.8-.6-.9-.6h-.1c-.1-.2-.2-.5-.1-.6a2.1 2.1 0 01.3-.7 1 1 0 01.5-.4h1l.6.3a1.1 1.1 0 01.2 1.5z"/>
        <path class="a" d="M32.6 8.9l-.6.5-.2.2h-.9l-.7-.6a.6.6 0 01-.1-.6l.3-.6.4-.3h1c.3 0 .6.3.9.8s-.1.7-.1.7z"/>
        <path class="a" d="M32.5 8.9l-.7.6h-.7l-.8-.6a.6.6 0 01-.1-.6.8.8 0 01.4-.6c0-.1.1-.2.3-.2h.9c.4.1.8.9.8.9s0 .4-.1.6z"/>
        <path class="a" d="M32.4 8.9l-.6.5h-.7a1.8 1.8 0 01-.7-.5.6.6 0 01-.1-.6.8.8 0 01.4-.6c.1-.2.4-.2.6-.2h.7a1.3 1.3 0 01.5.7 1.5 1.5 0 01-.1.6z"/>
        <path class="a" d="M32.3 8.9l-.5.4H31l-.5-.4a.6.6 0 00-.1-.4v-.2a1.3 1.3 0 01.4-.7h1a1.1 1.1 0 01.6.7 1.5 1.5 0 01-.1.6z"/>
        <path class="a" d="M32.2 8.9l-.4.3H31l-.3-.3a1.4 1.4 0 01-.2-.6.8.8 0 01.4-.6h.9a1 1 0 01.5.6c0 .1-.1.4-.1.6z"/>
        <path class="a" d="M32 8.9l-.2.2H31l-.2-.2a1.4 1.4 0 01-.2-.6c0-.2.1-.4.3-.4h.9l.4.5-.2.6z"/>
        <path class="a" d="M31.9 8.9h-1a1.4 1.4 0 01-.2-.6c0-.1.1-.2.2-.3h.9l.2.2a.9.9 0 01-.1.7z"/>
        <path class="a" d="M31.8 8.9H31a1.1 1.1 0 01-.2-.5c0-.1.1-.1.1-.2h1a.9.9 0 01-.1.7zM31.8 8.4v.2z"/>
      </g>
    </g>
    <g class="c">
      <path class="a" d="M31.4 1.3c.2 3.7.3 7.4.5 11.1.1-3.7.3-7.4.4-11.1h-.9z"/>
      <g class="c" clip-path="url(#c)">
        <path class="a" d="M31.4 1.3l.5 11.1-.5-11.1zM31.4 1.3l.5 11.1-.5-11.1zM31.4 1.3l.5 11.1-.5-11.1zM31.4 1.3l.5 11.1-.5-11.1zM31.4 1.3l.5 11.1-.5-11.1zM31.4 1.3l.5 11.1-.4-11.2-.1.1zM31.5 1.2l.4 11.2-.4-11.2zM31.5 1.2l.4 11.2-.4-11.2zM31.5 1.2l.4 11.2-.4-11.2zM31.5 1.2l.4 11.2-.4-11.2zM31.5 1.2l.4 11.2-.3-11.2zM31.6 1.2l.3 11.2-.3-11.2zM31.6 1.2l.3 11.2-.3-11.2zM31.6 1.2l.3 11.2-.2-11.2z"/>
        <path class="a" d="M31.7 1.2l.2 11.2V1.2zM31.9 1.2zM31.9 1.2zM32 1.2v11.2V1.2zM32 1.2zM32 1.2v11.2l.2-11.2H32zM32.1 1.2l-.2 11.2.2-11.2zM32.1 1.2l-.2 11.2.2-11.2z"/>
        <path class="a" d="M32.1 1.2l-.2 11.2.3-11.2zM32.2 1.2l-.3 11.2.3-11.2zM32.2 1.2l-.3 11.2.3-11.2zM32.2 1.2l-.3 11.2.3-11.2z"/>
        <path class="a" d="M32.2 1.2l-.3 11.2.4-11.2z"/>
        <path class="a" d="M32.3 1.2l-.4 11.2.4-11.1zM32.3 1.3l-.4 11.1.4-11.1z"/>
      </g>
    </g>
    <g class="c">
      <path class="a" d="M32.3 1.3l-.4 11c.1-3.6.3-7.3.4-11z"/>
      <g class="c" clip-path="url(#d)">
        <path class="a" d="M32.3 1.3l-.4 11.1.4-11.1zM32.3 1.3l-.4 11.1.4-11.1zM32.3 1.3l-.4 11.1.4-11zM32.3 1.4l-.4 11 .4-11zM32.3 1.4l-.4 11 .4-11z"/>
      </g>
    </g>
    <g class="c">
      <path class="a" d="M31.9 12.4l.4-11c-.1 0-.4.1-.6 0h-.3c.2 3.6.3 7.3.5 11z"/>
      <g class="c" clip-path="url(#e)">
        <path class="a" d="M32.3 1.4l-.4 11 .4-11zM32.3 1.4l-.4 11 .4-11zM32.3 1.4l-.4 11 .3-11zM32.2 1.4l-.3 11 .3-11zM32.2 1.4l-.3 11 .3-11z"/>
        <path class="a" d="M32.2 1.4l-.3 11 .2-11zM32.1 1.4l-.2 11 .2-11z"/>
        <path class="a" d="M32.1 1.4l-.2 11v-11zM32 1.4zM31.9 1.4v11-11zM31.8 1.4zM31.8 1.4v11l-.2-11zM31.7 1.4l.2 11-.2-11z"/>
        <path class="a" d="M31.7 1.4l.2 11-.3-11zM31.6 1.4l.3 11-.3-11zM31.6 1.4l.3 11-.3-11z"/>
        <path class="a" d="M31.6 1.4l.3 11-.4-11zM31.5 1.4l.4 11-.4-11zM31.5 1.4l.4 11-.4-11zM31.5 1.4l.4 11-.4-11zM31.5 1.4l.4 11-.5-11.1z"/>
      </g>
    </g>
    <g class="c">
      <path class="a" d="M31 12.7a5.6 5.6 0 002-.1 2.9 2.9 0 001.1-.3c.3 0 .5-.2.9-.4a4.8 4.8 0 002.3-4.1 6.4 6.4 0 00-5-6.4c-.1 0-.4.1-.6 0h.4c.2 0 .3.1.2.2a6.4 6.4 0 015 6.4 4.8 4.8 0 01-2.3 3.9l.3-.2.5-.3.6-.6a7.4 7.4 0 00.9-1.2 6.9 6.9 0 01.3-.8 9.3 9.3 0 00.3-1 9.6 9.6 0 000-1.7c-.1-.3-.2-1-.5-1.8a5.6 5.6 0 01-.5-.8l-.6-.7-.7-.6-.8-.5-1.4-.5a7.2 7.2 0 00-1.9-.2l-1.6.3-1 .4c0 .1-.4.2-.6.4l-.8.7-.6.6c-.1.2-.2.3-.2.5l-.5.8-.3.9c0 .5-.1.8-.1 1a11.9 11.9 0 00.1 1.5 9.2 9.2 0 01.3.9 4.8 4.8 0 00.4.8 5.9 5.9 0 001.8 1.9 6.4 6.4 0 002.6 1z"/>
      <g class="c" clip-path="url(#f)">
        <path class="a" d="M31 12.7a6.3 6.3 0 004-.8 4.8 4.8 0 002.3-4.1 6.4 6.4 0 00-5-6.4c-.1 0-.4.1-.6 0h.4c.2 0 .3.1.2.2a6.4 6.4 0 015 6.4 4.8 4.8 0 01-2.3 3.9 5.6 5.6 0 002.9-5.7 5.8 5.8 0 00-4.5-5 6.8 6.8 0 00-3.5.1 7.4 7.4 0 00-3 2.1 6.1 6.1 0 00-.3 6.4 6 6 0 004.4 2.9z"/>
        <path class="a" d="M34 2a3.5 3.5 0 011.7 1.3 6.7 6.7 0 011.6 4.5 4.8 4.8 0 01-2.3 4.1l.3-.2.5-.3.3-.3.4-.4.2-.3.3-.4.3-.4.2-.4v-.4c.1-.2.1-.4.2-.5V5.7a4.3 4.3 0 00-.1-.5l-.2-.4a.8.8 0 00-.2-.5l-.2-.4-.3-.4-.2-.4-.4-.3-.3-.3-.4-.4-.3-.2-.6-.3h-.3l-1.5-.4h-3.1l-.3.2-.5.2-.3.2h-.2l-.4.3-.4.4-.3.3-.3.4-.2.4-.3.4-.2.4a4.3 4.3 0 01-.1.5l-.2.4v2.8l.2.4a4.3 4.3 0 00.1.5l.2.4c.1.1.1.3.2.4l.3.4c0 .1.2.3.3.4l.2.3c.2.1.3.3.4.4l.3.2.5.3.3.2.7.3h.2l1.2.3h3.5l.5-.3a4.8 4.8 0 002.3-4.1 6.7 6.7 0 00-1.6-4.5v.4C37 6.2 34.3 8.8 31.5 8s-3.4-4.5-1.3-5.8A5.2 5.2 0 0134 2a5.8 5.8 0 00-1.7-.6c-.1 0-.4.1-.6 0h.4c.2 0 .3.1.2.2A5.8 5.8 0 0134 2z"/>
        <path class="a" d="M33.4 1.7a3.8 3.8 0 012.7 2.2 6 6 0 011.2 3.9 4.8 4.8 0 01-2.3 4.1l.3-.2.5-.3.3-.3.4-.4.2-.3.3-.4.3-.4.2-.4v-.4c.1-.2.1-.4.2-.5V5.7a4.3 4.3 0 00-.1-.5l-.2-.4a.8.8 0 00-.2-.5l-.2-.4-.3-.4-.2-.4-.4-.3-.3-.3-.4-.4-.3-.2-.6-.3h-.3l-1.5-.4h-3.1l-.3.2-.5.2-.3.2h-.2l-.4.3-.4.4-.3.3-.3.4-.2.4-.3.4-.2.4a4.3 4.3 0 01-.1.5l-.2.4v2.8l.2.4a4.3 4.3 0 00.1.5l.2.4c.1.1.1.3.2.4l.3.4c0 .1.2.3.3.4l.2.3c.2.1.3.3.4.4l.3.2.5.3.3.2.7.3h.2l1.2.3h3.5l.5-.3a4.8 4.8 0 002.3-4.1 6 6 0 00-1.2-3.9c0 .1.1.2.1.3.7 2.7-2.6 5.2-5.7 3.5s-2.2-5.1.2-5.8a5.2 5.2 0 012.7-.2 2.3 2.3 0 00-1.1-.3c-.1 0-.4.1-.6 0h.4c.2 0 .3.1.2.2a2.3 2.3 0 011.1.3z"/>
        <path class="a" d="M32.9 1.5c.9.2 3 .7 3.5 2.8a6.3 6.3 0 01.9 3.5 4.8 4.8 0 01-2.3 4.1l.3-.2.5-.3.3-.3.4-.4.2-.3.3-.4.3-.4.2-.4v-.4c.1-.2.1-.4.2-.5V5.7a4.3 4.3 0 00-.1-.5l-.2-.4a.8.8 0 00-.2-.5l-.2-.4-.3-.4-.2-.4-.4-.3-.3-.3-.4-.4-.3-.2-.6-.3h-.3l-1.5-.4h-3.1l-.3.2-.5.2-.3.2h-.2l-.4.3-.4.4-.3.3-.3.4-.2.4-.3.4-.2.4a4.3 4.3 0 01-.1.5l-.2.4v2.8l.2.4a4.3 4.3 0 00.1.5l.2.4c.1.1.1.3.2.4l.3.4c0 .1.2.3.3.4l.2.3c.2.1.3.3.4.4l.3.2.5.3.3.2.7.3h.2l1.2.3h3.5l.5-.3a4.8 4.8 0 002.3-4.1 6.3 6.3 0 00-.9-3.5v.4c.2 3.3-4.1 4.9-6.8 2.6S28.1 2.3 31.4 2h.8c-.1 0-.4.1-.6 0h.4c.2 0 .3.1.2.2z"/>
        <path class="a" d="M32.5 1.4c2.4.3 3.8 1.4 4.1 3.3a5.7 5.7 0 01.7 3.1 4.8 4.8 0 01-2.3 4.1l.3-.2.5-.3.3-.3.4-.4.2-.3.3-.4.3-.4.2-.4v-.4c.1-.2.1-.4.2-.5V5.7a4.3 4.3 0 00-.1-.5l-.2-.4a.8.8 0 00-.2-.5l-.2-.4-.3-.4-.2-.4-.4-.3-.3-.3-.4-.4-.3-.2-.6-.3h-.3l-1.5-.4h-3.1l-.3.2-.5.2-.3.2h-.2l-.4.3-.4.4-.3.3-.3.4-.2.4-.3.4-.2.4a4.3 4.3 0 01-.1.5l-.2.4v2.8l.2.4a4.3 4.3 0 00.1.5l.2.4c.1.1.1.3.2.4l.3.4c0 .1.2.3.3.4l.2.3c.2.1.3.3.4.4l.3.2.5.3.3.2.7.3h.2l1.2.3h3.5l.5-.3a4.8 4.8 0 002.3-4.1 5.7 5.7 0 00-.7-3.1v.2c0 4-4.9 4.6-7.1 2.5S28.4 2 31.6 1.9h.7c-.1 0-.4.1-.6 0h.4c.2 0 .3.1.2.2z"/>
        <path class="a" d="M37.3 7.8a4.8 4.8 0 01-2.3 4.1l.3-.2.5-.3.3-.3.4-.4.2-.3.3-.4.3-.4.2-.4v-.4c.1-.2.1-.4.2-.5V5.7a4.3 4.3 0 00-.1-.5l-.2-.4a.8.8 0 00-.2-.5l-.2-.4-.3-.4-.2-.4-.4-.3-.3-.3-.4-.4-.3-.2-.6-.3h-.3l-1.5-.4h-3.1l-.3.2-.5.2-.3.2h-.2l-.4.3-.4.4-.3.3-.3.4-.2.4-.3.4-.2.4a4.3 4.3 0 01-.1.5l-.2.4v2.8l.2.4a4.3 4.3 0 00.1.5l.2.4c.1.1.1.3.2.4l.3.4c0 .1.2.3.3.4l.2.3c.2.1.3.3.4.4l.3.2.5.3.3.2.7.3h.2l1.2.3h3.5l.5-.3a4.8 4.8 0 002.3-4.1 6.2 6.2 0 00-.5-2.7v.4c-.8 4.3-6.2 4-8.1 1.2s-.5-4.9 2.7-5.4h1.4a4.4 4.4 0 014 3.8 6.2 6.2 0 01.5 2.7z"/>
        <path class="a" d="M37.3 7.8a4.8 4.8 0 01-2.3 4.1l.3-.2.5-.3.3-.3.4-.4.2-.3.3-.4.3-.4.2-.4v-.4c.1-.2.1-.4.2-.5V5.7a4.3 4.3 0 00-.1-.5l-.2-.4a.8.8 0 00-.2-.5l-.2-.4-.3-.4-.2-.4-.4-.3-.3-.3-.4-.4-.3-.2-.6-.3h-.3l-1.5-.4h-3.1l-.3.2-.5.2-.3.2h-.2l-.4.3-.4.4-.3.3-.3.4-.2.4-.3.4-.2.4a4.3 4.3 0 01-.1.5l-.2.4v2.8l.2.4a4.3 4.3 0 00.1.5l.2.4c.1.1.1.3.2.4l.3.4c0 .1.2.3.3.4l.2.3c.2.1.3.3.4.4l.3.2.5.3.3.2.7.3h.2l1.2.3h3.5l.5-.3a4.8 4.8 0 002.3-4.1 6.7 6.7 0 00-.4-2.4c-.5 4.3-6 4.7-8.3 1.5s-.8-5.2 3-5.7h.4c3.4.1 4.9 2.2 4.9 4.2a6.7 6.7 0 01.4 2.4z"/>
        <path class="a" d="M37.3 7.8a4.8 4.8 0 01-2.3 4.1l.3-.2.5-.3.3-.3.4-.4.2-.3.3-.4.3-.4.2-.4v-.4c.1-.2.1-.4.2-.5V5.7a4.3 4.3 0 00-.1-.5l-.2-.4a.8.8 0 00-.2-.5l-.2-.4-.3-.4-.2-.4-.4-.3-.3-.3-.4-.4-.3-.2-.6-.3h-.3l-1.5-.4h-3.1l-.3.2-.5.2-.3.2h-.2l-.4.3-.4.4-.3.3-.3.4-.2.4-.3.4-.2.4a4.3 4.3 0 01-.1.5l-.2.4v2.8l.2.4a4.3 4.3 0 00.1.5l.2.4c.1.1.1.3.2.4l.3.4c0 .1.2.3.3.4l.2.3c.2.1.3.3.4.4l.3.2.5.3.3.2.7.3h.2l1.2.3h3.5l.5-.3a4.8 4.8 0 002.3-4.1 6.4 6.4 0 00-.3-2v.4c-1.4 4.4-7.2 3.5-8.9.4s1.8-6.9 5.8-5.6A4.3 4.3 0 0137 5.8a6.4 6.4 0 01.3 2z"/>
        <path class="a" d="M37.3 7.8a4.8 4.8 0 01-2.3 4.1l.3-.2.5-.3.3-.3.4-.4.2-.3.3-.4.3-.4.2-.4v-.4c.1-.2.1-.4.2-.5V5.7a4.3 4.3 0 00-.1-.5l-.2-.4a.8.8 0 00-.2-.5l-.2-.4-.3-.4-.2-.4-.4-.3-.3-.3-.4-.4-.3-.2-.6-.3h-.3l-1.5-.4h-3.1l-.3.2-.5.2-.3.2h-.2l-.4.3-.4.4-.3.3-.3.4-.2.4-.3.4-.2.4a4.3 4.3 0 01-.1.5l-.2.4v2.8l.2.4a4.3 4.3 0 00.1.5l.2.4c.1.1.1.3.2.4l.3.4c0 .1.2.3.3.4l.2.3c.2.1.3.3.4.4l.3.2.5.3.3.2.7.3h.2l1.2.3h3.5l.5-.3a4.8 4.8 0 002.3-4.1 5 5 0 00-.2-1.7.6.6 0 01-.1.4c-1.3 3.8-7.1 3.9-9.1.1s1.6-6.9 5.8-5.7c2.6.8 3.8 3.1 3.4 4.8a5 5 0 01.2 1.7z"/>
        <path class="a" d="M37.3 7.8a4.8 4.8 0 01-2.3 4.1l.3-.2.5-.3.3-.3.4-.4.2-.3.3-.4.3-.4.2-.4v-.4c.1-.2.1-.4.2-.5V5.7a4.3 4.3 0 00-.1-.5l-.2-.4a.8.8 0 00-.2-.5l-.2-.4-.3-.4-.2-.4-.4-.3-.3-.3-.4-.4-.3-.2-.6-.3h-.3l-1.5-.4h-3.1l-.3.2-.5.2-.3.2h-.2l-.4.3-.4.4-.3.3-.3.4-.2.4-.3.4-.2.4a4.3 4.3 0 01-.1.5l-.2.4v2.8l.2.4a4.3 4.3 0 00.1.5l.2.4c.1.1.1.3.2.4l.3.4c0 .1.2.3.3.4l.2.3c.2.1.3.3.4.4l.3.2.5.3.3.2.7.3h.2l1.2.3h3.5l.5-.3a4.8 4.8 0 002.3-4.1 7.1 7.1 0 00-.1-1.4c0 .2-.1.3-.1.4-1.9 4.5-8.1 3.1-9.5-.3s2.7-6.7 6.7-5c2.2 1 3.4 3 2.9 4.9a7.1 7.1 0 01.1 1.4z"/>
        <path class="a" d="M37.3 7.8a4.8 4.8 0 01-2.3 4.1l.3-.2.5-.3.3-.3.4-.4.2-.3.3-.4.3-.4.2-.4v-.4c.1-.2.1-.4.2-.5V5.7a4.3 4.3 0 00-.1-.5l-.2-.4a.8.8 0 00-.2-.5l-.2-.4-.3-.4-.2-.4-.4-.3-.3-.3-.4-.4-.3-.2-.6-.3h-.3l-1.5-.4h-3.1l-.3.2-.5.2-.3.2h-.2l-.4.3-.4.4-.3.3-.3.4-.2.4-.3.4-.2.4a4.3 4.3 0 01-.1.5l-.2.4v2.8l.2.4a4.3 4.3 0 00.1.5l.2.4c.1.1.1.3.2.4l.3.4c0 .1.2.3.3.4l.2.3c.2.1.3.3.4.4l.3.2.5.3.3.2.7.3h.2l1.2.3h3.5l.5-.3a4.8 4.8 0 002.3-4.1v-1l-.2.4c-1.9 4.2-8.4 3.1-9.7-.8S30.5.1 34.6 2a4.6 4.6 0 012.7 5.2v1z"/>
        <path class="a" d="M37.3 7.8a4.8 4.8 0 01-2.3 4.1l.3-.2.5-.3.3-.3.4-.4.2-.3.3-.4.3-.4.2-.4v-.4c.1-.2.1-.4.2-.5V5.7a4.3 4.3 0 00-.1-.5l-.2-.4a.8.8 0 00-.2-.5l-.2-.4-.3-.4-.2-.4-.4-.3-.3-.3-.4-.4-.3-.2-.6-.3h-.3l-1.5-.4h-3.1l-.3.2-.5.2-.3.2h-.2l-.4.3-.4.4-.3.3-.3.4-.2.4-.3.4-.2.4a4.3 4.3 0 01-.1.5l-.2.4v2.8l.2.4a4.3 4.3 0 00.1.5l.2.4c.1.1.1.3.2.4l.3.4c0 .1.2.3.3.4l.2.3c.2.1.3.3.4.4l.3.2.5.3.3.2.7.3h.2l1.2.3h3.5l.5-.3a4.8 4.8 0 002.3-4.1v-.7c-2.3 4.2-8.8 2.9-10-1.1s3.5-6.9 7.6-4.7c1.8 1 3.3 3 2.5 5.4v.7z"/>
        <path class="a" d="M30.6 1.1h-1l-.3.2-.5.2-.3.2h-.2l-.4.3-.4.4-.3.3-.3.4-.2.4-.3.4-.2.4a4.3 4.3 0 01-.1.5l-.2.4v2.9l.2.4a4.3 4.3 0 00.1.5l.2.4c.1.1.1.3.2.4l.3.4c0 .1.2.3.3.4l.2.3c.2.1.3.3.4.4l.3.2.5.3.3.2.7.3h.2l1.2.3h3.5l.5-.3a4.8 4.8 0 002.3-4.1v-.7a.8.8 0 01-.2.4c-2.4 4.2-9.3 2.4-10.2-1.7-.5-2.5 1.2-4.7 4-5.1h-.3z"/>
        <path class="a" d="M37.3 7.8a4.8 4.8 0 01-2.3 4.1l.3-.2.5-.3.3-.3.4-.4.2-.3.3-.4.3-.4.2-.4v-.4c.1-.2.1-.4.2-.5V5.7a4.3 4.3 0 00-.1-.5l-.2-.4a.8.8 0 00-.2-.5l-.2-.4-.3-.4-.2-.4-.4-.3-.3-.3h-.1l.3.2a4.3 4.3 0 011.2 4.9v.3z"/>
        <path class="a" d="M29.6 1.4l-.8.4-.3.2h-.2l-.4.3-.4.4-.3.3-.3.4-.2.4-.3.4-.2.4a4.3 4.3 0 01-.1.5l-.2.4v2.6l.2.4a4.3 4.3 0 00.1.5l.2.4c.1.1.1.3.2.4l.3.4c0 .1.2.3.3.4l.2.3c.2.1.3.3.4.4l.3.2.5.3.3.2.7.3h.2l1.2.3h3.5l.5-.3a4.8 4.8 0 002.3-4v.2C34.7 12.7 28 11 26.9 6.9a4.2 4.2 0 012.9-5.1z"/>
        <path class="a" d="M35 11.9l.8-.5.3-.3.4-.4.2-.3.3-.4.3-.4.2-.4v-.4c.1-.2.1-.4.2-.5V5.7a4.3 4.3 0 00-.1-.5l-.2-.4a.8.8 0 00-.2-.5l-.2-.4-.3-.4v-.2h.1a4.3 4.3 0 01.5 4.5 4.8 4.8 0 01-2.3 4z"/>
        <path class="a" d="M28.3 2.1l-.8.7-.3.3-.3.4-.2.4-.3.4-.2.4a4.3 4.3 0 01-.1.5l-.2.4v2.5l.2.4a4.3 4.3 0 00.1.5l.2.4c.1.1.1.3.2.4l.3.4c0 .1.2.3.3.4l.2.3c.2.1.3.3.4.4l.3.2.5.3.3.2.7.3h.2l1.2.3h3.5l.5-.3a4.8 4.8 0 002.3-3.6l-.2.4c-2.5 3.5-9.7 2.5-10.6-2.6a4.2 4.2 0 012.3-4.3l-.4.2z"/>
        <path class="a" d="M35 11.9l.8-.5.3-.3.4-.4.2-.3.3-.4.3-.4.2-.4v-.4c.1-.2.1-.4.2-.5V5.7a4.3 4.3 0 00-.1-.5l-.2-.4a.8.8 0 00-.2-.5v.3a4.5 4.5 0 01-.1 3.8 4.8 4.8 0 01-2.1 3.5z"/>
        <path class="a" d="M27.5 2.8l-.6.7-.2.4-.3.4-.2.4a4.3 4.3 0 01-.1.5l-.2.4v2.5l.2.4a4.3 4.3 0 00.1.5l.2.4c.1.1.1.3.2.4l.3.4c0 .1.2.3.3.4l.2.3c.2.1.3.3.4.4l.3.2.5.3.3.2.7.3h.2l1.2.3h3.5l.5-.3a4.5 4.5 0 002.2-3.2l-.2.4c-3.4 4.1-10.2 1.6-10.7-2.8a4.4 4.4 0 011.6-3.9l-.3.3z"/>
        <path class="a" d="M35 11.9l.8-.5.3-.3.4-.4.2-.3.3-.4.3-.4.2-.4v-.4c.1-.2.1-.4.2-.5V5.7a4.3 4.3 0 00-.1-.5v.2a4 4 0 01-.5 3.4 4.5 4.5 0 01-2.1 3.1z"/>
        <path class="a" d="M26.9 3.5l-.5.8-.2.4a4.3 4.3 0 01-.1.5l-.2.4v2.5l.2.4a4.3 4.3 0 00.1.5l.2.4c.1.1.1.3.2.4l.3.4c0 .1.2.3.3.4l.2.3c.2.1.3.3.4.4l.3.2.5.3.3.2.7.3h.2l1.2.3h3.5l.5-.3a4.6 4.6 0 002.1-2.6l-.3.3c-3.4 3.4-10.6 1-10.7-3.9a4.2 4.2 0 011-2.8.2.2 0 00-.2.2z"/>
        <path class="a" d="M35 11.9l.8-.5.3-.3.4-.4.2-.3.3-.4.3-.4.2-.4v-.4c.1-.2.1-.4.2-.5V6.7a4 4 0 01-.8 2.6 4.6 4.6 0 01-1.9 2.6zM29.3 3.6c-1.1 2.6 1.9 5.2 4.6 4.1a3 3 0 00.1-5.6c-1.3-.5-4-.5-4.7 1.5z"/>
        <path class="a" d="M29.5 3.7c-1.2 2.8 1.9 4.9 4.3 3.9a2.8 2.8 0 000-5.4c-1.2-.4-3.6-.4-4.3 1.5z"/>
        <path class="a" d="M29.5 4.3c-.7 2.7 2.7 4.2 4.9 2.8a2.8 2.8 0 00-1.3-5 3 3 0 00-3.6 2.2z"/>
        <path class="a" d="M29.6 4.3C29 6.5 32 8.6 34.3 7a2.6 2.6 0 00-1.2-4.7 3.1 3.1 0 00-3.5 2z"/>
        <path class="a" d="M29.7 4.9c.1 2.6 3.1 3.2 4.6 1.9a2.5 2.5 0 00-1.8-4.4 2.8 2.8 0 00-2.8 2.5z"/>
        <path class="a" d="M29.9 4.8c-.3 1.9 2.3 3.5 4.2 2.1a2.2 2.2 0 00.9-2.2 2.4 2.4 0 00-1.9-2 2.5 2.5 0 00-3.2 2.1z"/>
        <path class="a" d="M30 5c-.2 1.7 2.2 3.3 4.2 1.6a2.2 2.2 0 00-1.5-3.8A2.5 2.5 0 0030 5z"/>
        <path class="a" d="M30.1 5.6c.1.4.6 1.4 2.4 1.6l.9-.2a2.6 2.6 0 001.1-.9c1-1.6-.9-3.7-2.9-3a2.3 2.3 0 00-1.5 2.5z"/>
        <path class="a" d="M30.2 5.6c.2.6.5.8 1.3 1.3l1 .3.9-.3.9-.7a2 2 0 00-2.1-3c-1 .1-2.3 1.2-2 2.4z"/>
        <path class="a" d="M30.4 5.6a2.3 2.3 0 002.1 1.5s.9-.2.9-.3l.8-.6c1-1.4-.6-3-2-2.9S30 4.6 30.4 5.6z"/>
        <path class="a" d="M30.5 5.6a2.1 2.1 0 002 1.4 2.2 2.2 0 001.6-.8c1-1.4-.5-2.8-1.9-2.8s-2.1 1.1-1.7 2.2z"/>
        <path class="a" d="M30.6 5.6a2 2 0 00.9 1.1l1 .2.9-.2a1.2 1.2 0 00.5-.5c1-1.3-.4-2.7-1.6-2.7a2.2 2.2 0 00-1.5.9 1.1 1.1 0 00-.2 1.2z"/>
        <path class="a" d="M30.7 5.3a1.5 1.5 0 00.8 1.3l1 .2a1.8 1.8 0 001.3-.6c1-1.3-.4-2.6-1.5-2.5h-.7l-.7.6a.9.9 0 00-.2.9z"/>
        <path class="a" d="M30.8 5.6a1.5 1.5 0 00.7.9l1 .3.9-.3a1.4 1.4 0 00.6-1v-.6a3.3 3.3 0 01-.3-.6l-.7-.4h-1.4l-.6.5-.3.6c0 .2 0 .5.1.6z"/>
        <path class="a" d="M30.9 5.7a2.7 2.7 0 00.6.7l1 .3.9-.3a2.8 2.8 0 00.5-.8.9.9 0 000-.7c-.3-.6-.3-.6-.9-.9h-1.4l-.5.4-.3.6a.9.9 0 00.1.7z"/>
        <path class="a" d="M31 5.7s.4.6.5.6.9.3 1 .3l.9-.3.5-.7a1.6 1.6 0 00-.9-1.5h-1.4a1.8 1.8 0 00-.7.9.9.9 0 00.1.7z"/>
        <path class="a" d="M31 5.7l.5.5a2.3 2.3 0 00.9.3l1-.3.4-.6a1.7 1.7 0 00-.1-.7 2.2 2.2 0 00-.7-.7l-.7-.2-.7.3c-.3.1-.6.7-.6.7v.7z"/>
        <path class="a" d="M31.1 5.7l.4.4.9.4a1.6 1.6 0 00.9-.4 1 1 0 00.4-.5c0-.2 0-.5-.1-.6l-.5-.7-.8-.2-.7.3c-.2 0-.5.6-.5.6v.7z"/>
        <path class="a" d="M31.2 5.7c.1.1.2.3.3.3l.9.4c.1 0 1-.3 1.2-.8s0-.5-.1-.6a.7.7 0 00-.4-.5l-.8-.3-.7.3a.7.7 0 00-.4.5c-.1.2 0 .5 0 .7z"/>
        <path class="a" d="M31.3 5.7c.1.1.1.2.2.2l.9.4a2.6 2.6 0 00.9-.5c.1 0 .1-.1.2-.2a1.3 1.3 0 00-.1-.6c0-.2-.1-.3-.3-.4a1.5 1.5 0 00-.8-.3l-.7.3a.5.5 0 00-.3.4.9.9 0 000 .7z"/>
        <path class="a" d="M31.4 5.7h.1l.9.4a2.8 2.8 0 001-.6.7.7 0 00-.1-.6v-.1l-.7-.4h-.3l-.7.4V5a.9.9 0 000 .7z"/>
        <path class="a" d="M31.5 5.7l.9.4.9-.5V5l-.9-.4-.8.4a.9.9 0 000 .7z"/>
        <path class="a" d="M31.7 5.7c.1.2.5.3.7.3a.8.8 0 00.7-.4.6.6 0 000-.6l-.8-.4-.7.4a.9.9 0 00.1.7z"/>
        <path class="a" d="M31.9 5.7l.5.2a.5.5 0 00.5-.3.6.6 0 000-.6l-.5-.3-.6.3a.9.9 0 00.1.7z"/>
        <path class="a" d="M32.1 5.7h.6a.9.9 0 000-.7l-.3-.2-.4.2a.9.9 0 00.1.7z"/>
        <path class="a" d="M32.3 5.7h.2a.9.9 0 000-.7h-.3a.9.9 0 00.1.7z"/>
      </g>
    </g>
  </g>
  <g class="j">
    <g class="c">
      <path class="a" d="M60.5 19l.6-1.5-.1-5.2-.5 1.4V19zM60.5 13.7l.5-1.4-23.1-4.6-.5 1.5 23.1 4.5z"/>
      <path class="a" d="M37.4 9.2v5.2L60.5 19v-5.3L37.4 9.2z"/>
    </g>
  </g>
  <g class="j">
    <g class="c">
      <path class="a" d="M23.2 11.3l.5-1.5V4.6L23.1 6l.1 5.3z"/>
      <path class="a" d="M23.1 6l.6-1.4L.5 0 0 1.5 23.1 6z"/>
      <path class="a" d="M0 1.5l.1 5.2 23.1 4.6-.1-5.3L0 1.5z"/>
    </g>
  </g>
  <g class="j">
    <g class="c">
      <path class="a" d="M34.3 14.1l.6-1.4-.1-6-.5 1.5v5.9z"/>
      <path class="a" d="M34.3 8.2l.5-1.5L26.2 5l-.5 1.5 8.6 1.7z"/>
      <path class="a" d="M25.7 6.5l.1 5.9 8.5 1.7V8.2l-8.6-1.7z"/>
    </g>
  </g>
  <path class="a" d="M32.4 17a.2.2 0 00.2.2c.2 0 .3-.1.3-.2s-.1-.2-.3-.2a.2.2 0 00-.2.2zM29.5 16.9a.2.2 0 00.2.2c.2 0 .3-.1.3-.2s-.1-.2-.3-.2zM35.5 16.5a.2.2 0 10.2-.2.2.2 0 00-.2.2zM27.3 5.4a.3.3 0 00.3.3c.1 0 .2-.1.2-.3a.2.2 0 00-.2-.2c-.2 0-.3.1-.3.2zM22 5.4a.3.3 0 00.3.3c.1 0 .2-.1.2-.3a.2.2 0 00-.2-.2c-.2 0-.3.1-.3.2zM20.6 7c0 .2.1.3.2.3a.3.3 0 00.3-.3c0-.1-.1-.2-.3-.2a.2.2 0 00-.2.2zM37.4 12.6c0 .1.1.2.3.2l.2-.2c0-.2-.1-.3-.2-.3a.3.3 0 00-.3.3z"/>
  <circle class="a" cx="20.6" cy="9.2" r=".2"/>
  <path class="a" d="M37.4 14.9a.3.3 0 00.3.3c.1 0 .2-.1.2-.3l-.2-.2c-.2 0-.3.1-.3.2zM26.3 15.6a.2.2 0 10.2-.2.2.2 0 00-.2.2zM23.6 13.9c0 .2.1.2.2.2s.2 0 .2-.2l-.2-.2a.2.2 0 00-.2.2zM21.3 11.4a.2.2 0 00.2.2c.2 0 .3-.1.3-.2s-.1-.2-.3-.2a.2.2 0 00-.2.2z"/>
  <g opacity=".4">
    <path class="a" d="M37.7 15l-2 1.5-3 .5-2.9-.2-3.3-1.2-2.7-1.7-2.2-2.5-1-2.2.2-2.1 1.5-1.7H27.6l3.4.9 3.1 2.1 2.1 2.1 1.5 2.1V15z"/>
    <path class="a" d="M32.7 17l3.1-.5 1.9-1.5v-2.4l-1.4-2.1-2.2-2.2L31 6.2l-3.4-.8h-5.4l-1.4 1.7-.2 2.1.9 2.3 2.3 2.5 2.7 1.6 3.3 1.3zm3-.6l-3 .5h-2.9l-3.3-1.3-2.6-1.6-2.3-2.5-.9-2.2.2-2.1 1.4-1.6h5.3l3.4.9 3.1 2 2.1 2.2 1.4 2.1V15z"/>
  </g>
  <path class="a" d="M30.5 10.9l.4-.6-.8-.8-1-.3-.4.6.7.9zm.3-.6l-.4.5-.9-.2-.7-.8.3-.5 1 .2z"/>
  <path class="a" d="M29.9 10.9l.9-.2v-.8l-1-.6h-.9v.8zm.8-.2h-.8l-.9-.6v-.6h.8l.9.5z"/>
  <path class="a" d="M32.6 17h.1l-2-5.9 5 5.5h.1L31 10.9l6.6 4.1h.1l-6.5-4.4 6.4 2.2h.1l-6.6-2.4 5.1.4-5.5-.8 3.4-1.3-3.9.7.9-3.1h-.2l-1.2 2.8-2.1-3.7h-.1l1.4 3.7-6.6-3.7h-.1l6.1 3.7L20.8 7l7.4 2.6-7.6-.6v.2l7.9.9-6.9 1.2 7.4-1-5.2 3.4h.1l5.4-3.2-2.8 4.8h.1l3.3-4.3-.2 5.8h.1l.5-5.7zm-2.2-6.5l1.3 4-1.5-4-.3 3.8v-3.7l-2.6 3.7 2.2-3.8-3 1.7 3-1.9-4.9.7 4.6-.8-5.8-.7 5.7.4-6-2.1 5.6 1.6h.1l-3.7-2.3 4.1 2.3L28 6.3l1.7 3.1 1-2.4-.6 2.6 2.7-.8-2.6 1 3.5.5-3.5-.3 2.6.9-2.5-.8 4.8 3.2-4.7-2.9 2.1 2.4z"/>
  <path class="a" d="M33.8 8.3a.3.3 0 00.3.3c.1 0 .2-.1.2-.3a.2.2 0 00-.2-.2c-.2 0-.3.1-.3.2zM35.9 10.5a.3.3 0 00.3.3.3.3 0 00.3-.3l-.3-.2c-.2 0-.3.1-.3.2z"/>
  <circle class="a" cx="31" cy="6.3" r=".3"/>
  <path class="a" d="M28.9 9.5c.1-.3.7-.3 1.2 0s.8.8.6 1.1-.7.2-1.2-.1-.8-.7-.6-1zM26 15.2a1 1 0 001 .9.9.9 0 001-.9.9.9 0 00-1-1 1 1 0 00-1 1z"/>
  <path class="a" d="M29.1 9.5l-2.3 5.2.7.4 3.1-4.7-1.5-.9z"/>
</svg>
