<svg xmlns="http://www.w3.org/2000/svg" viewBox="0 0 165.5 149.9"><defs><style>.a{fill:#00b3ea;}.b{opacity:0.6;}.c{fill:#1ded93;}</style></defs><path class="a" d="M23.1,12.2a1.5,1.5,0,0,1-1.6,1.4H20.1l2.9,3H21.6l-2.9-3H14.8v3.1H13.7V8.5h7.8a1.5,1.5,0,0,1,1.6,1.4Zm-1.6.5a.5.5,0,0,0,.5-.5V9.9a.5.5,0,0,0-.5-.5H15.3a.5.5,0,0,0-.5.5v2.3a.5.5,0,0,0,.5.5Z"/><path class="a" d="M32.3,8.5a1.5,1.5,0,0,1,1.6,1.3v6.8H32.8v-3H25.6v3H24.5V9.8a1.5,1.5,0,0,1,1.6-1.3Zm.5,4.2V9.8a.5.5,0,0,0-.5-.4H26.1a.5.5,0,0,0-.5.4v2.9Z"/><path class="a" d="M43.2,8.5a1.4,1.4,0,0,1,1.5,1.3v5.5a1.4,1.4,0,0,1-1.5,1.3H35.4V8.5Zm.5,1.3c0-.2-.3-.4-.5-.4H36.9c-.2,0-.5.2-.5.4v5.5c0,.2.3.4.5.4h6.3c.2,0,.5-.2.5-.4Z"/><path class="a" d="M46.2,8.5h1.1v8.1H46.2Z"/><path class="a" d="M56.9,8.5a1.4,1.4,0,0,1,1.5,1.3v6.8h-1v-3H50.1v3h-1V9.8a1.4,1.4,0,0,1,1.5-1.3Zm.5,4.2V9.8c0-.2-.3-.4-.5-.4H50.6c-.2,0-.5.2-.5.4v2.9Z"/><path class="a" d="M68.8,8.5v.9H64.7v7.2H63.6V9.4H59.5V8.5Z"/><path class="a" d="M69.8,8.5h1.1v8.1H69.8Z"/><path class="a" d="M80.4,8.5A1.5,1.5,0,0,1,82,9.8v5.5a1.5,1.5,0,0,1-1.6,1.3H74.2a1.5,1.5,0,0,1-1.6-1.3V9.8a1.5,1.5,0,0,1,1.6-1.3Zm0,7.2a.5.5,0,0,0,.5-.4V9.8a.5.5,0,0,0-.5-.4H74.2a.5.5,0,0,0-.5.4v5.5a.5.5,0,0,0,.5.4Z"/><path class="a" d="M91.7,8.5h1.1v8.1H91.3L84.5,9.5v7.1H83.4V8.5h1.5l6.8,7.1Z"/><path class="a" d="M21.5,39.8a1.5,1.5,0,0,1,1.6,1.3v5.5a1.5,1.5,0,0,1-1.6,1.3H15.3a1.5,1.5,0,0,1-1.6-1.3V41.1a1.5,1.5,0,0,1,1.6-1.3Zm0,7.2a.5.5,0,0,0,.5-.4V41.1a.5.5,0,0,0-.5-.4H15.3a.5.5,0,0,0-.5.4v5.5a.5.5,0,0,0,.5.4Z"/><path class="a" d="M24.4,39.8h9.4V41l-8.2,6h8.2v.9H24.4V46.7l8.2-6H24.4Z"/><path class="a" d="M43,39.8a1.4,1.4,0,0,1,1.5,1.3v5.5A1.4,1.4,0,0,1,43,47.9H36.7a1.4,1.4,0,0,1-1.5-1.3V41.1a1.4,1.4,0,0,1,1.5-1.3ZM43,47c.2,0,.5-.2.5-.4V41.1c0-.2-.3-.4-.5-.4H36.7a.5.5,0,0,0-.5.4v5.5a.5.5,0,0,0,.5.4Z"/><path class="a" d="M54.3,39.8h1v8.1H53.9L47,40.8v7.1H46V39.8h1.4l6.9,7.1Z"/><path class="a" d="M65.3,40.7H57.9v2.7h6v.9h-6V47h7.4v.9H56.8V39.8h8.5Z"/><path class="a" d="M21.5,70.6A1.5,1.5,0,0,1,23.1,72v5.4a1.5,1.5,0,0,1-1.6,1.3H15.3a1.5,1.5,0,0,1-1.6-1.3V72a1.5,1.5,0,0,1,1.6-1.4Zm0,7.2a.5.5,0,0,0,.5-.4V72a.5.5,0,0,0-.5-.5H15.3a.5.5,0,0,0-.5.5v5.4a.5.5,0,0,0,.5.4Z"/><path class="a" d="M33.1,70.6l-3.9,4.1,3.9,4H31.7l-3.2-3.3-3.3,3.3H23.9l3.9-4-3.9-4.1h1.3L28.5,74l3.2-3.4Z"/><path class="a" d="M43.7,70.6l-4.3,5.1v3h-1v-3l-4.3-5.1h1.2l3.6,4,3.6-4Z"/><path class="a" d="M54.4,72.3H53.3V72a.5.5,0,0,0-.5-.5H46.6a.5.5,0,0,0-.5.5v5.4a.5.5,0,0,0,.5.4h6.2a.5.5,0,0,0,.5-.4v-2H51v-.9h3.4v2.9a1.5,1.5,0,0,1-1.6,1.3H46.6A1.5,1.5,0,0,1,45,77.4V72a1.5,1.5,0,0,1,1.6-1.4h6.2A1.5,1.5,0,0,1,54.4,72Z"/><path class="a" d="M64.4,71.5H56.9v2.7h6v.9h-6v2.7h7.5v.9H55.9V70.6h8.5Z"/><path class="a" d="M74.1,70.6h1.1v8.1H73.7l-6.8-7v7H65.8V70.6h1.4l6.9,7.1Z"/><path class="a" d="M27.9,102.5l-3.4,8.1h-.9l-2.9-7-2.9,7h-.9l-3.4-8.1h1.1l2.7,6.5,2.8-6.5h1.2l2.8,6.5,2.7-6.5Z"/><path class="a" d="M36.5,102.5a1.5,1.5,0,0,1,1.6,1.3v6.8h-1v-3H29.8v3H28.7v-6.8a1.5,1.5,0,0,1,1.6-1.3Zm.6,4.2v-2.9c0-.2-.3-.4-.6-.4H30.3a.5.5,0,0,0-.5.4v2.9Z"/><path class="a" d="M48.5,102.5v.9H44.3v7.2h-1v-7.2H39.1v-.9Z"/><path class="a" d="M58,103.4H50.5v2.7h6.1v.9H50.5v2.7H58v.9H49.5v-8.1H58Z"/><path class="a" d="M68.8,106.2a1.5,1.5,0,0,1-1.6,1.4H65.8l2.9,3H67.3l-2.9-3H60.5v3.1H59.4v-8.1h7.8a1.5,1.5,0,0,1,1.6,1.3Zm-1.6.4a.5.5,0,0,0,.5-.4v-2.4a.5.5,0,0,0-.5-.4H61a.5.5,0,0,0-.5.4v2.4a.5.5,0,0,0,.5.4Z"/><path class="a" d="M22.3,134.1v1H14.8v2.7h6v.9h-6v3.6h-1v-8.2Z"/><path class="a" d="M23.2,134.1h1v8.2h-1Z"/><path class="a" d="M35.4,137.9a1.6,1.6,0,0,1-1.6,1.4H32.4l2.9,3H33.9l-2.9-3H27v3.1H26v-8.1h7.8a1.5,1.5,0,0,1,1.6,1.3Zm-1.6.4a.5.5,0,0,0,.5-.4v-2.4a.5.5,0,0,0-.5-.4H27.6c-.3,0-.6.2-.6.4v2.4c0,.2.3.4.6.4Z"/><path class="a" d="M45.3,135.1H37.8v2.7h6v.9h-6v2.7h7.5v.9H36.8v-8.2h8.5Z"/><path class="a" d="M165.5,24.1H0V0H165.5ZM2.2,22.2H163.4V1.9H2.2Z"/><path class="a" d="M165.5,55.5H0V31.4H165.5ZM2.2,53.7H163.4V33.3H2.2Z"/><path class="a" d="M165.5,87H0V62.9H165.5ZM2.2,85.1H163.4V64.8H2.2Z"/><path class="a" d="M165.5,118.4H0V94.3H165.5ZM2.2,116.5H163.4V96.2H2.2Z"/><path class="a" d="M165.5,149.9H0V125.8H165.5ZM2.2,148H163.4V127.7H2.2Z"/><g class="b"><rect class="c" x="142.4" y="5.2" width="15.9" height="13.78"/></g><g class="b"><rect class="c" x="142.4" y="36.6" width="15.9" height="13.78"/></g><g class="b"><rect class="c" x="142.4" y="68.1" width="15.9" height="13.78"/></g><g class="b"><rect class="c" x="142.4" y="99.5" width="15.9" height="13.78"/></g><g class="b"><rect class="c" x="142.4" y="130.9" width="15.9" height="13.78"/></g></svg>