<svg xmlns="http://www.w3.org/2000/svg" preserveAspectRatio="none" viewBox="0 0 403.04027 83.91842">
  <defs>
    <style>
      .a {
        fill: #00d9ff;
      }

      .b {
        fill: #00bdff;
        opacity: 0.18;
      }

      .c {
        fill: none;
        stroke: #00bdff;
        stroke-miterlimit: 10;
        stroke-width: 3.04027px;
      }
    </style>
  </defs>
  <g>
    <g>
      <polygon class="a" points="14.217 77.222 17.93 80.934 30.998 80.934 27.214 77.15 14.217 77.222"/>
      <polygon class="a" points="32.559 77.222 36.271 80.934 49.34 80.934 45.556 77.15 32.559 77.222"/>
      <polygon class="a" points="50.9 77.222 54.613 80.934 67.681 80.934 63.897 77.15 50.9 77.222"/>
      <polygon class="a" points="69.241 77.222 72.954 80.934 86.023 80.934 82.239 77.15 69.241 77.222"/>
    </g>
    <g>
      <polygon class="a" points="250.054 9.999 253.766 6.287 266.835 6.287 263.051 10.071 250.054 9.999"/>
      <polygon class="a" points="268.395 9.999 272.108 6.287 285.176 6.287 281.392 10.071 268.395 9.999"/>
      <polygon class="a" points="286.737 9.999 290.449 6.287 303.518 6.287 299.734 10.071 286.737 9.999"/>
      <polygon class="a" points="305.078 9.999 308.791 6.287 321.859 6.287 318.075 10.071 305.078 9.999"/>
    </g>
    <g>
      <polygon class="a" points="352.869 73.927 356.581 70.214 369.65 70.214 365.866 73.998 352.869 73.927"/>
      <polygon class="a" points="371.21 73.927 374.923 70.214 387.991 70.214 384.207 73.998 371.21 73.927"/>
    </g>
    <polygon class="b" points="1.52 14.642 1.52 57.695 15.145 71.32 83.581 71.32 91.303 79.042 338.907 79.042 343.964 73.986 386.568 73.986 401.52 59.034 401.52 9.835 391.685 0 251.241 0 248.013 3.227 127.497 3.227 124.943 0.673 15.706 0.673 1.52 14.642"/>
    <polygon class="c" points="1.52 17.998 1.52 61.051 15.145 74.676 83.581 74.676 91.303 82.398 338.907 82.398 343.964 77.342 386.568 77.342 401.52 62.39 401.52 13.191 391.685 3.356 251.241 3.356 248.013 6.583 127.497 6.583 124.943 4.029 15.706 4.029 1.52 17.998"/>
  </g>
</svg>
