<svg xmlns="http://www.w3.org/2000/svg" xmlns:xlink="http://www.w3.org/1999/xlink" preserveAspectRatio="none" viewBox="0 0 829.40559 461.89399"><defs><style>.a{isolation:isolate;}.b{fill:url(#a);}.c{opacity:0.07;}.d{fill:#fff;}.e{fill:none;stroke:#fff;stroke-miterlimit:10;stroke-width:2.26812px;}.f{fill:#f60;}.g,.h,.i,.j,.k,.l,.m,.n{mix-blend-mode:color-dodge;}.g{fill:url(#b);}.h{fill:url(#c);}.i{fill:url(#d);}.j{fill:url(#e);}.k{fill:url(#f);}.l{fill:url(#g);}.m{fill:url(#h);}.n{fill:url(#i);}</style><radialGradient id="a" cx="49.82479" cy="136.89822" r="67.04702" gradientTransform="translate(188.09572 -341.48789) scale(4.51422 4.19785)" gradientUnits="userSpaceOnUse"><stop offset="0" stop-color="#0c295e"/><stop offset="0.29253" stop-color="#0b275a"/><stop offset="0.57723" stop-color="#09204e"/><stop offset="0.85784" stop-color="#05153b"/><stop offset="1" stop-color="#020d2e"/></radialGradient><radialGradient id="b" cx="1605.54775" cy="436.07418" r="24.0029" gradientTransform="matrix(0.4063, 0.6482, 2.43769, -1.52796, -1656.01382, -331.89823)" gradientUnits="userSpaceOnUse"><stop offset="0" stop-color="#fff"/><stop offset="0.08867" stop-color="#f3f3f3"/><stop offset="0.25118" stop-color="#d1d1d1"/><stop offset="0.46927" stop-color="#9c9c9c"/><stop offset="0.73456" stop-color="#515151"/><stop offset="1"/></radialGradient><radialGradient id="c" cx="220.42643" cy="413.68352" r="24.0029" gradientTransform="matrix(0.45181, -0.85998, -2.45262, -1.28853, 1684.5508, 759.79468)" gradientUnits="userSpaceOnUse"><stop offset="0" stop-color="#fff"/><stop offset="0.08552" stop-color="#f7f7f7"/><stop offset="0.2191" stop-color="#e1e1e1"/><stop offset="0.38412" stop-color="#bcbcbc"/><stop offset="0.57409" stop-color="#8a8a8a"/><stop offset="0.78535" stop-color="#494949"/><stop offset="1"/></radialGradient><radialGradient id="d" cx="-75.62289" cy="453.88123" r="24.0029" gradientTransform="matrix(0, 0.97144, 2.76852, 0, -735.51715, 127.50108)" xlink:href="#c"/><radialGradient id="e" cx="-461.07533" cy="569.28928" r="24.0029" xlink:href="#c"/><radialGradient id="f" cx="1707.89561" cy="416.00131" r="24.0029" gradientTransform="matrix(0.76501, 0, 0, -2.87697, -1258.57183, 1421.58758)" xlink:href="#b"/><radialGradient id="g" cx="2360.96549" cy="359.74595" r="24.0029" gradientTransform="matrix(0, 0.76501, 2.87697, 0, -777.39089, -1381.55248)" xlink:href="#b"/><radialGradient id="h" cx="2563.10677" cy="447.45612" r="24.0029" gradientTransform="matrix(0.41192, 0.64464, 2.42429, -1.54912, -1453.97927, -537.50498)" xlink:href="#b"/><radialGradient id="i" cx="2688.79977" cy="393.36247" r="24.0029" gradientTransform="matrix(0.76501, 0, 0, -2.87697, -1278.36972, 1379.29884)" xlink:href="#b"/></defs><g class="a"><polygon class="b" points="672.516 432.69 360.516 432.69 344.516 424.69 167.516 424.69 145.516 435.69 102.516 433.69 45.016 402.69 44.516 44.69 70.516 30.69 351.516 30.69 398.516 55.69 631.516 55.69 677.516 32.69 759.516 32.69 780.516 44.69 780.516 109.69 756.516 122.69 756.516 182.69 781.516 195.69 781.516 405.69 760.516 416.69 702.516 416.69 672.516 432.69"/><g class="c"><polygon class="d" points="795.001 39.732 795.001 114.878 771.512 127.451 771.512 177.769 795.516 190.618 795.516 414.456 769.474 428.395 711.367 428.395 681.953 444.14 351.412 444.14 335.261 435.495 176.572 435.495 154.156 447.494 100.793 447.494 31.731 410.527 31.731 39.732 69.973 19.262 361.691 19.262 407.996 44.049 622.725 44.049 665.787 20.999 762.29 20.999 795.001 39.732"/></g><polygon class="e" points="795.001 39.732 795.001 114.878 771.512 127.451 771.512 177.769 795.516 190.618 795.516 414.456 769.474 428.395 711.367 428.395 681.953 444.14 351.412 444.14 335.261 435.495 176.572 435.495 154.156 447.494 100.793 447.494 31.731 410.527 31.731 39.732 69.973 19.262 361.691 19.262 407.996 44.049 622.725 44.049 665.787 20.999 762.29 20.999 795.001 39.732"/><polyline class="e" points="631.708 55.658 677.1 32.608 759.43 32.608 780.974 44.313 780.974 110.07 756.213 122.643 756.213 182.578 781.516 195.427"/><polyline class="e" points="44.516 122.382 44.516 44.542 70.711 30.873 351.516 30.873 399.013 55.658"/><polyline class="e" points="773.826 409.647 760.489 416.786 702.383 416.786 672.969 432.53 360.395 432.53 344.245 423.886 167.589 423.886 145.173 435.884"/><polygon class="f" points="430.916 25.135 414.064 33.966 433.15 33.966 450.197 25.077 430.916 25.135"/><path class="f" d="M433.371,34.2566H412.732L430.693,24.8449l20.848-.0632Zm-17.97513-.5815h17.53349l15.92219-8.3037-17.71285.054Z"/><polygon class="f" points="467.048 25.135 450.197 33.966 469.283 33.966 486.329 25.077 467.048 25.135"/><path class="f" d="M469.50422,34.2566H448.86429l17.961-9.4117,20.849-.0632Zm-17.97609-.5815h17.53444l15.92219-8.3037-17.71378.054Z"/><polygon class="f" points="503.181 25.135 486.329 33.966 505.415 33.966 522.462 25.077 503.181 25.135"/><path class="f" d="M505.63645,34.2566h-20.639l17.96-9.4117,20.849-.0632Zm-17.97514-.5815h17.5335L521.117,25.3714l-17.71378.054Z"/><polygon class="f" points="539.313 25.135 522.462 33.966 541.548 33.966 558.594 25.077 539.313 25.135"/><path class="f" d="M541.7687,34.2566h-20.639l17.96093-9.4117,20.848-.0632Zm-17.97515-.5815h17.53369l15.922-8.3037-17.71286.054Z"/><polygon class="f" points="575.446 25.135 558.594 33.966 577.68 33.966 594.727 25.077 575.446 25.135"/><path class="f" d="M577.90187,34.2566H557.26214l17.96075-9.4117,20.848-.0632Zm-17.97607-.5815h17.53462l15.92107-8.3037-17.71285.054Z"/><polygon class="f" points="630.859 25.034 611.578 25.178 594.727 33.966 613.813 33.966 630.859 25.034"/><path class="f" d="M614.03505,34.2566h-20.645l17.96412-9.368,20.85663-.1551Zm-17.97271-.5815h17.52939l15.91677-8.34-17.70612.1317Z"/><polygon class="f" points="194.746 440.862 177.894 449.693 196.98 449.693 214.027 440.804 194.746 440.862"/><path class="f" d="M197.20092,449.984h-20.6388l17.96131-9.412,20.84748-.063Zm-17.975-.5819h17.5335l15.922-8.3034-17.71266.0538Z"/><polygon class="f" points="230.878 440.862 214.027 449.693 233.113 449.693 250.159 440.804 230.878 440.862"/><path class="f" d="M233.33409,449.984H212.69436l17.96075-9.412,20.849-.063Zm-17.97588-.5819h17.53444l15.92218-8.3034-17.71378.0538Z"/><polygon class="f" points="267.011 440.862 250.159 449.693 269.246 449.693 286.291 440.804 267.011 440.862"/><path class="f" d="M269.46634,449.984H248.82753l17.95983-9.412,20.849-.063Zm-17.975-.5819h17.5335l15.92219-8.3034-17.71378.0538Z"/><polygon class="f" points="303.143 440.862 286.291 449.693 305.378 449.693 322.424 440.804 303.143 440.862"/><path class="f" d="M305.59877,449.984h-20.639l17.96094-9.412,20.84805-.063Zm-17.97514-.5819h17.5335l15.92219-8.3034-17.71285.0538Z"/><path class="g" d="M69.08354,58.06814c32.31062-20.25254,54.14147-43.637,48.75579-52.22926-5.38492-8.591-35.94973.85945-68.26034,21.112C17.26361,47.20639-4.56888,70.59894.816,79.19,6.20172,87.78219,36.76816,78.32366,69.08354,58.06814Z"/><path class="h" d="M780.37331,16.5451C747.86478-.53383,716.6537-5.14083,710.66474,6.25874c-5.9881,11.39794,15.5107,34.49159,48.01922,51.57053,32.51332,17.08146,63.73276,21.68428,69.72086,10.28634C834.39378,56.716,812.88662,33.62656,780.37331,16.5451Z"/><path class="i" d="M521.06857,77.35567c36.69573,0,66.44727-10.43747,66.44727-23.31449,0-12.87519-29.75152-23.32033-66.44725-23.32037-36.70114,0-66.45813,10.445-66.45813,23.32022C454.61045,66.91806,484.36743,77.35563,521.06857,77.35567Z"/><path class="j" d="M90.82415,402.12428c-32.50852-17.07894-63.71961-21.68594-69.70857-10.28636-5.9881,11.39793,15.5107,34.49159,48.01923,51.57052,32.51331,17.08146,63.73276,21.68428,69.72086,10.28635C144.84463,442.29522,123.33747,419.20573,90.82415,402.12428Z"/><path class="k" d="M66.34688,224.75735c0-38.1332-8.21953-69.05018-18.36016-69.05018-10.13916,0-18.36466,30.917-18.36466,69.0502,0,38.13882,8.2255,69.06147,18.36467,69.06147C58.12735,293.81883,66.34688,262.89618,66.34688,224.75735Z"/><path class="l" d="M257.59481,442.97051c38.1332,0,69.05018-8.21955,69.05017-18.36017,0-10.13917-30.917-18.36466-69.05019-18.36464-38.13883,0-69.06148,8.22552-69.06147,18.36469C188.53333,434.751,219.456,442.97053,257.59481,442.97051Z"/><path class="m" d="M696.48125,437.07822c32.1331-20.533,53.75957-44.10666,48.2993-52.65169-5.4595-8.54381-35.94088,1.17236-68.074,21.70538-32.13784,20.536-53.76587,44.11777-48.30638,52.66158C633.86046,467.33852,664.34341,457.61427,696.48125,437.07822Z"/><path class="n" d="M796.94995,247.59992c0-38.1332-8.21959-69.05017-18.36021-69.05016-10.13917,0-18.36464,30.917-18.3646,69.05021,0,38.13882,8.22556,69.06146,18.36473,69.06145C788.73049,316.66141,796.95,285.73875,796.94995,247.59992Z"/></g></svg>