<svg xmlns="http://www.w3.org/2000/svg" viewBox="0 0 199.74 109.48" preserveAspectRatio="none"><defs><style>.a,.c,.d,.e,.f{fill:none;}.a,.c,.d,.e{stroke:#e67f09;stroke-miterlimit:10;}.a{stroke-width:2px;}.b{fill:#e67f09;}.c{stroke-width:2.87px;}.d{stroke-width:2.14px;}</style></defs><polygon class="a" points="181.7 108.48 141.64 108.33 114.55 108.48 101.39 101.58 69.58 101.33 69.48 108.47 20.51 108.48 2 95.39 1.24 21.35 21.82 1.01 57.22 1.06 59.97 3.65 81.87 3.69 84.32 1.26 123.37 1.26 183.45 1.44 198.23 12.23 198.09 49.56 194.49 53.8 194.38 69.84 198.74 69.83 198.7 94.98 181.7 108.48"/><polygon class="b" points="101.63 98.75 16.05 98.83 13.25 96.85 98.86 96.77 101.63 98.75"/><path class="c" d="M62.94,105.42l.07-7Z"/><polyline class="d" points="14.15 8.78 77.35 8.96 82.15 3.46"/><path class="b" d="M79.94,4.21c-.06-.39-.22-.67-.51-.58-.08-.4-.27-.69-.56-.55l-1.64.82-5.14.32C70.38,4.1,68.67,4,67,4.06a.43.43,0,0,0-.31.2l-2.28.06c-1.78,0-3.57-.07-5.35-.17a4.77,4.77,0,0,0-.82-1A8.15,8.15,0,0,0,57.42,2c-.19-.23-.34-.2-.45-.06A3.1,3.1,0,0,0,56,1.47a.49.49,0,0,0-.24,0l-.12-.13c-.25-.31-.42-.17-.52.13a4.55,4.55,0,0,0-2.71.21,28.09,28.09,0,0,0-6.08,0c-1.13,0-2.26,0-3.38.08s-2.39-.16-3.58-.21c-1.57-.06-3.17-.15-4.76-.11q-1.07,0-2.13,0a19.24,19.24,0,0,0-9.11.48c0-.39-.14-.71-.46-.65a6.14,6.14,0,0,0-4.29,3.23,1.09,1.09,0,0,0-.09.37l-.92.65a.88.88,0,0,0-.27.46,7.76,7.76,0,0,0-1.06.87c-.36.35-.41,1.79.25,1.86a12.11,12.11,0,0,0,4.05-.57A10.56,10.56,0,0,1,24.9,8a12.56,12.56,0,0,0,4.28.05h0c.06.36.22.66.49.67a42.34,42.34,0,0,0,6.76-.28c.06.34.22.62.49.64,3.38.24,6.75.35,10.13.33.24,0,.39-.23.46-.52q12.51,0,25,.24c.33,0,.5-.44.51-.92a.28.28,0,0,0,.18,0l.5-.25c0,.54.24,1,.58.82l.32-.2a.31.31,0,0,0,.34,0,10,10,0,0,0,1.09-.53c.1.2.25.32.48.23a3.66,3.66,0,0,0,1.78-1.55s0,0,.07,0A6.18,6.18,0,0,0,80,6.17C80.49,5.87,80.38,4.36,79.94,4.21Z"/><path class="e" d="M176.19,1.75l21.47,15.6Z"/><path class="b" d="M185.54,4.65c-.69,0-.7,2,0,2S186.24,4.65,185.54,4.65Z"/><path class="b" d="M182.15,2.84l-.1-.16a.35.35,0,0,0-.25-.14l-.13,0a9.69,9.69,0,0,1-2-.8.31.31,0,0,0-.39.1,1.2,1.2,0,0,0-.23.6,1.82,1.82,0,0,0,.05.77.77.77,0,0,0,.3.46,9.86,9.86,0,0,0,2.41.9c.15,0,.3-.2.35-.29a1.56,1.56,0,0,0,.15-.71A1.55,1.55,0,0,0,182.15,2.84Z"/><path class="b" d="M181.74,2.44c-.7,0-.7,2,0,2S182.44,2.44,181.74,2.44Z"/><path class="b" d="M181.54,2.32l-.11-.15a.31.31,0,0,0-.25-.14l-1.86-.5c-.15,0-.31.21-.36.3a1.54,1.54,0,0,0-.14.7,1.44,1.44,0,0,0,.14.71l.1.16a.33.33,0,0,0,.26.13l1.86.5c.15,0,.31-.2.36-.29a1.61,1.61,0,0,0,.14-.71A1.56,1.56,0,0,0,181.54,2.32Z"/><path class="b" d="M180.56,2.13l-.1-.16a.31.31,0,0,0-.25-.13L179,1.55a.25.25,0,0,0-.19.09.49.49,0,0,0-.16.21,1.09,1.09,0,0,0-.1.32,1.58,1.58,0,0,0-.05.38,1.56,1.56,0,0,0,.15.71l.1.16a.36.36,0,0,0,.25.13l1.18.29a.26.26,0,0,0,.19-.09.37.37,0,0,0,.16-.21.94.94,0,0,0,.11-.32,1.64,1.64,0,0,0,0-.38A1.56,1.56,0,0,0,180.56,2.13Z"/><path class="b" d="M180.22,2.54l-.05-.24A1.06,1.06,0,0,0,180,2a1.64,1.64,0,0,0-.37-.28,2.23,2.23,0,0,0-.44-.13,1.43,1.43,0,0,0-.76.11.58.58,0,0,0-.17.18,1,1,0,0,0-.13.28,1.57,1.57,0,0,0-.05.37,1.34,1.34,0,0,0,0,.4l.05.24a1.22,1.22,0,0,0,.18.36l.12.1a.26.26,0,0,0,.27,0l.06,0a1.19,1.19,0,0,1,.46,0,1.09,1.09,0,0,1,.37.19l-.09-.07a.29.29,0,0,0,.18.11.21.21,0,0,0,.2,0,.37.37,0,0,0,.17-.18.66.66,0,0,0,.13-.28A1.81,1.81,0,0,0,180.22,2.54Z"/><path class="b" d="M197.87,13.44c.07-.49,0-1.2-.33-1.29a5,5,0,0,0-.91-.86,15.55,15.55,0,0,0-1.86-1.36c-.68-.4-1.45-.61-2.12-1a8.11,8.11,0,0,1-1.71-1.7,13.31,13.31,0,0,0-3.51-2.53,11.57,11.57,0,0,1-2.3-1.48c-.54-.49-.88-1.19-1.54-1.55a5.12,5.12,0,0,0-2.33-.36,29.85,29.85,0,0,0-3,.08c-.71,0-.67,2.05,0,2s1.07-.06,1.6-.08c-.17.52-.09,1.28.3,1.49.94.49,1.84,1,2.73,1.6a.73.73,0,0,0,.17.26,13.34,13.34,0,0,0,1.32.9,18.23,18.23,0,0,0,1.79,1.35.23.23,0,0,0,.34,0l0,0a7.25,7.25,0,0,1,1.63,1.45,7,7,0,0,0,1.14,1.35,7.69,7.69,0,0,0,1.85.71,10,10,0,0,1,1.75,1.23c.9.65,1.84,1.23,2.79,1.8,0,.49.05,1.07.49,1.14l.75.13a.38.38,0,0,0,.25-.14,1.84,1.84,0,0,0,.4-.83,1.91,1.91,0,0,0-.09-1.24A1.93,1.93,0,0,0,197.87,13.44Z"/><line class="e" x1="192.31" y1="12.69" x2="192.18" y2="70.96"/><line class="e" x1="193.31" y1="12.69" x2="193.18" y2="70.96"/><rect class="f" x="193.87" y="14.16" width="2" height="35.5"/><polyline class="b" points="18.39 0 0 0 0 17.84"/><polyline class="b" points="186.68 0.07 198.74 0.07 198.74 9.55"/><polygon class="b" points="64.37 101.82 20.4 101.91 17.5 99.84 64.37 99.84 64.37 101.82"/><polygon class="b" points="64.37 105.43 25.56 105.52 22.6 103.45 64.37 103.45 64.37 105.43"/></svg>