<svg xmlns="http://www.w3.org/2000/svg" viewBox="0 0 200.92 225.49"><defs><style>.a{fill:#242424;}.a,.f,.g,.h,.i,.l{stroke:#e67f09;}.a,.f,.g,.h,.i,.k,.l,.m{stroke-miterlimit:10;}.b,.c,.d,.e{fill:#e67f09;}.b{opacity:0.8;}.c{opacity:0.6;}.d{opacity:0.4;}.f,.g,.h,.i,.j,.l,.m{fill:none;}.f{stroke-width:2px;}.g{stroke-width:2.87px;}.h{stroke-width:2.14px;}.k{fill:#2de2ff;stroke:#45faff;}.k,.m{stroke-width:0.25px;}.l{stroke-width:0.5px;}.m{stroke:blue;opacity:0.3;}</style></defs><polygon class="a" points="118.17 1.03 103.31 16.09 0.5 16.22 0.64 0.93 118.17 1.03"/><polyline class="b" points="137.76 16.8 154 0.2 167.04 0.3 150.95 16.77"/><polyline class="c" points="121.89 16.8 138.13 0.2 151.16 0.3 135.07 16.77"/><polyline class="d" points="106.53 16.6 122.77 0 135.81 0.1 119.71 16.57"/><polygon class="e" points="199.1 0 199.03 17 153.75 16.77 169.99 0.31 199.1 0"/><polygon class="f" points="182.88 224.48 142.81 224.33 115.72 224.48 102.57 217.58 70.76 217.34 70.66 224.47 21.69 224.48 3.17 211.4 2.42 137.35 23 117.01 58.4 117.06 61.15 119.65 83.05 119.7 85.5 117.26 124.55 117.26 184.63 117.44 199.41 128.23 199.27 165.56 195.67 169.81 195.55 185.84 199.92 185.84 199.88 210.98 182.88 224.48"/><polygon class="e" points="102.81 214.75 17.23 214.83 14.43 212.85 100.04 212.77 102.81 214.75"/><path class="g" d="M209.56,362.76l.08-7Z" transform="translate(-145.45 -141.33)"/><path class="f" d="M152.59,278.7" transform="translate(-145.45 -141.33)"/><polyline class="h" points="15.33 124.78 78.53 124.96 83.33 119.46"/><path class="e" d="M226.56,261.55c-.05-.39-.21-.67-.5-.58-.08-.4-.27-.7-.57-.55l-1.63.82-5.14.31c-1.71-.11-3.43-.17-5.14-.15a.39.39,0,0,0-.31.2c-.76,0-1.52,0-2.28.06-1.79,0-3.57-.08-5.35-.17a5.53,5.53,0,0,0-.82-1,8.65,8.65,0,0,0-.78-1.08c-.19-.22-.33-.2-.44-.05a3,3,0,0,0-1-.51.36.36,0,0,0-.23,0l-.12-.14c-.25-.31-.42-.16-.52.14a4.54,4.54,0,0,0-2.71.21,27.56,27.56,0,0,0-6.09,0c-1.12,0-2.25,0-3.37.08s-2.39-.17-3.58-.21c-1.57-.06-3.17-.15-4.77-.11h-2.12a19.23,19.23,0,0,0-9.11.48c0-.4-.14-.71-.47-.65a6.13,6.13,0,0,0-4.28,3.22,1.44,1.44,0,0,0-.1.37l-.91.65a.89.89,0,0,0-.27.47,7.68,7.68,0,0,0-1.06.86c-.36.35-.42,1.8.25,1.87a12.11,12.11,0,0,0,4-.57,10.22,10.22,0,0,1,4.3-.09,12.56,12.56,0,0,0,4.28.05h0c.06.36.22.66.49.67a43.54,43.54,0,0,0,6.76-.28c.06.34.22.62.49.64q5.06.36,10.13.33c.24,0,.39-.23.46-.53q12.51,0,25,.25c.32,0,.49-.45.51-.92a.28.28,0,0,0,.18,0l.5-.25c0,.54.24,1,.58.81l.32-.19a.31.31,0,0,0,.34,0c.38-.16.74-.34,1.09-.53a.35.35,0,0,0,.48.23,3.59,3.59,0,0,0,1.77-1.55H225a6.21,6.21,0,0,0,1.59-.63C227.11,263.21,227,261.7,226.56,261.55Z" transform="translate(-145.45 -141.33)"/><path class="i" d="M322.82,259.08l21.47,15.61Z" transform="translate(-145.45 -141.33)"/><path class="e" d="M332.17,262c-.69,0-.7,2,0,2S332.87,262,332.17,262Z" transform="translate(-145.45 -141.33)"/><path class="e" d="M328.78,260.17l-.1-.15a.34.34,0,0,0-.25-.14l-.14,0a9.6,9.6,0,0,1-2-.8.31.31,0,0,0-.39.1,1.2,1.2,0,0,0-.23.6,1.83,1.83,0,0,0,.05.77.77.77,0,0,0,.3.46,10.28,10.28,0,0,0,2.41.9c.14,0,.3-.2.35-.29a1.71,1.71,0,0,0,.15-.71A1.59,1.59,0,0,0,328.78,260.17Z" transform="translate(-145.45 -141.33)"/><path class="e" d="M328.36,259.78c-.69,0-.69,2,0,2S329.06,259.78,328.36,259.78Z" transform="translate(-145.45 -141.33)"/><path class="e" d="M328.16,259.66l-.1-.16a.31.31,0,0,0-.25-.13l-1.87-.5c-.14,0-.3.21-.35.29a1.78,1.78,0,0,0-.15.71,1.56,1.56,0,0,0,.15.71l.1.16a.36.36,0,0,0,.25.13l1.87.5c.15,0,.31-.21.35-.3a1.73,1.73,0,0,0,0-1.41Z" transform="translate(-145.45 -141.33)"/><path class="e" d="M327.19,259.47l-.1-.16a.35.35,0,0,0-.25-.14l-1.18-.28a.23.23,0,0,0-.19.09.45.45,0,0,0-.16.2.92.92,0,0,0-.1.32,1.31,1.31,0,0,0,0,.39,1.56,1.56,0,0,0,.15.71l.1.15a.34.34,0,0,0,.25.14l1.18.28a.26.26,0,0,0,.19-.08.47.47,0,0,0,.16-.21.92.92,0,0,0,.1-.32,1.31,1.31,0,0,0,0-.39A1.52,1.52,0,0,0,327.19,259.47Z" transform="translate(-145.45 -141.33)"/><path class="e" d="M326.85,259.88l-.05-.24a1.22,1.22,0,0,0-.18-.36,1.74,1.74,0,0,0-.38-.27,2,2,0,0,0-.43-.13,1.43,1.43,0,0,0-.76.11.42.42,0,0,0-.17.18.9.9,0,0,0-.13.28,2.38,2.38,0,0,0-.06.37,1.79,1.79,0,0,0,0,.4l.05.24a1.22,1.22,0,0,0,.18.36l.12.1a.26.26,0,0,0,.27,0l.06,0a1.19,1.19,0,0,1,.46,0,1.33,1.33,0,0,1,.37.2l-.09-.08a.23.23,0,0,0,.18.12.21.21,0,0,0,.2,0,.42.42,0,0,0,.17-.18.9.9,0,0,0,.13-.28A2,2,0,0,0,326.85,259.88Z" transform="translate(-145.45 -141.33)"/><path class="e" d="M344.5,270.78c.07-.49,0-1.2-.33-1.29a5,5,0,0,0-.91-.86,14.52,14.52,0,0,0-1.86-1.36c-.68-.4-1.45-.61-2.12-1a8.11,8.11,0,0,1-1.71-1.7,13.14,13.14,0,0,0-3.52-2.53,12.28,12.28,0,0,1-2.29-1.48c-.54-.49-.89-1.2-1.54-1.56a5,5,0,0,0-2.33-.35,27.14,27.14,0,0,0-3,.08c-.71.05-.67,2.05,0,2s1.07-.07,1.6-.08c-.17.52-.09,1.28.3,1.48.94.49,1.84,1,2.73,1.61a.72.72,0,0,0,.16.25,13,13,0,0,0,1.33.91,19.36,19.36,0,0,0,1.78,1.35.25.25,0,0,0,.35,0l.05,0a7,7,0,0,1,1.62,1.45A7.82,7.82,0,0,0,336,269a8.06,8.06,0,0,0,1.84.71,9.75,9.75,0,0,1,1.76,1.23c.9.65,1.83,1.23,2.78,1.79,0,.5.06,1.08.5,1.15l.74.12a.33.33,0,0,0,.26-.13,1.84,1.84,0,0,0,.4-.83,1.91,1.91,0,0,0-.09-1.24A2,2,0,0,0,344.5,270.78Z" transform="translate(-145.45 -141.33)"/><line class="i" x1="193.49" y1="128.7" x2="193.36" y2="186.97"/><line class="i" x1="194.49" y1="128.7" x2="194.36" y2="186.97"/><rect class="j" x="195.05" y="130.16" width="2" height="35.5"/><polyline class="e" points="19.56 116 1.18 116 1.18 133.84"/><polyline class="e" points="187.86 116.07 199.92 116.07 199.92 125.55"/><path class="k" d="M172.25,362.92" transform="translate(-145.45 -141.33)"/><path class="k" d="M141.29,341.07" transform="translate(-145.45 -141.33)"/><path class="l" d="M221.75,385.57" transform="translate(-145.45 -141.33)"/><polygon class="e" points="65.55 217.82 21.58 217.91 18.68 215.84 65.55 215.84 65.55 217.82"/><polygon class="e" points="65.55 221.44 26.74 221.52 23.78 219.46 65.55 219.46 65.55 221.44"/><path class="m" d="M253.94,360.11" transform="translate(-145.45 -141.33)"/><path class="m" d="M239.9,350.16" transform="translate(-145.45 -141.33)"/></svg>