<svg xmlns="http://www.w3.org/2000/svg" viewBox="0 0 310.04 364.36"><defs><style>.a,.b,.c,.d,.f{fill:#00d9ff;}.a{stroke:#000;opacity:0.3;}.a,.b,.c,.d,.e,.f,.g{stroke-miterlimit:10;}.a,.e{stroke-width:3px;}.b,.c,.d,.e,.f,.g{stroke:#00bdff;}.c{stroke-width:2px;}.d{opacity:0.5;}.e,.g{fill:none;}.f{stroke-width:2.87px;}.h{opacity:0.1;}.i{fill:#00bdff;}.j{opacity:0.4;}.k{opacity:0.6;}.l{opacity:0.8;}</style></defs><polygon class="a" points="291.04 362.83 136.74 362.83 111.52 362.83 97.93 355.83 67.86 355.83 67.86 362.83 19.66 362.83 2.19 350.83 1.9 21.85 21.87 1.51 56.22 1.56 58.88 4.14 109.54 4.2 114.04 1.76 120.4 1.76 290.39 1.94 299.69 7.63 308.04 12.73 308.04 128.46 301.49 133.46 301.54 155.46 308.54 155.46 308.04 348.83 291.04 362.83"/><polygon class="b" points="85.54 349.46 8.54 350.46 5.54 348.46 82.54 347.96 85.54 349.46"/><rect class="b" x="300.5" y="14.66" width="1.94" height="35.5"/><polyline class="b" points="18.54 0.5 0.7 0.5 0.7 18.34"/><polyline class="b" points="294.52 0.57 309.04 0.57 309.04 10.05"/><polygon class="b" points="57.27 354.44 14.61 354.52 11.8 352.45 57.27 352.45 57.27 354.44"/><polygon class="b" points="57.27 358.93 21.54 359.46 18.54 357.46 57.27 356.95 57.27 358.93"/><polygon class="b" points="22.04 1.46 56.04 1.46 59.04 4.46 109.04 4.46 97.04 11.46 12.04 11.46 22.04 1.46"/><line class="c" x1="287.04" y1="1.96" x2="309.04" y2="15.96"/><polygon class="d" points="111.54 361.46 84.54 347.46 307.54 347.46 289.54 361.46 111.54 361.46"/><rect class="b" x="293.74" y="10.42" width="2.36" height="21.13"/><rect class="b" x="293.74" y="43.08" width="2.36" height="21.13"/><rect class="b" x="293.74" y="75.73" width="2.36" height="21.13"/><path class="b" d="M299.64,11l7.4,5-.6,111.6L300,133Z"/><rect class="b" x="293.74" y="108.39" width="2.36" height="21.13"/><polygon class="e" points="290.63 362.86 136.34 362.83 111.11 362.86 97.53 355.83 67.45 355.83 67.45 362.83 19.26 362.83 1.79 350.83 1.5 21.85 21.47 1.51 55.82 1.56 58.48 4.14 109.13 4.2 113.63 1.76 120 1.76 289.98 1.94 299.29 7.63 307.63 12.73 307.63 128.46 301.08 133.46 301.13 155.46 308.13 155.46 307.63 348.83 290.63 362.86"/><path class="f" d="M58.54,359.46v0Z"/><polygon class="g" points="284.53 359.4 269.77 359.4 269.77 358.56 284.12 358.56 287.35 355.79 287.35 353.12 284.12 350.36 269.77 350.36 269.77 349.51 284.53 349.51 288.34 352.77 288.34 356.14 284.53 359.4"/><g class="h"><rect class="i" x="270.17" y="351.89" width="1.9" height="5.14"/></g><g class="j"><rect class="i" x="273.18" y="351.89" width="1.9" height="5.14"/></g><g class="k"><rect class="i" x="276.19" y="351.89" width="1.9" height="5.14"/></g><g class="l"><rect class="i" x="279.2" y="351.89" width="1.9" height="5.14"/></g><rect class="i" x="282.2" y="351.89" width="1.9" height="5.14"/><polygon class="g" points="128.61 359.4 113.84 359.4 110.04 356.14 110.04 352.77 113.84 349.51 128.61 349.51 128.61 350.36 114.25 350.36 111.02 353.12 111.02 355.79 114.25 358.56 128.61 358.56 128.61 359.4"/><g class="h"><rect class="i" x="126.3" y="351.89" width="1.9" height="5.14"/></g><g class="j"><rect class="i" x="123.29" y="351.89" width="1.9" height="5.14"/></g><g class="k"><rect class="i" x="120.29" y="351.89" width="1.9" height="5.14"/></g><g class="l"><rect class="i" x="117.28" y="351.89" width="1.9" height="5.14"/></g><rect class="i" x="114.27" y="351.89" width="1.9" height="5.14"/><path class="g" d="M185.74,354.46a3.48,3.48,0,1,1,3.44,3A3.22,3.22,0,0,1,185.74,354.46Z"/><path class="g" d="M189.18,359.51c-3.25,0-5.89-2.27-5.89-5.05s2.64-5.06,5.89-5.06,5.89,2.27,5.89,5.06S192.43,359.51,189.18,359.51Zm0-9.58c-2.91,0-5.27,2-5.27,4.53s2.36,4.52,5.27,4.52,5.27-2,5.27-4.52S192.09,349.93,189.18,349.93Z"/><g class="k"><path class="i" d="M199.2,349.79v9.33h3.62l3.63-3.11V352.9l-3.63-3.11Z"/></g><g class="l"><path class="i" d="M210.35,349.79v9.33H214L217.6,356V352.9L214,349.79Z"/></g><g class="k"><path class="i" d="M180.16,349.79v9.33h-3.62L172.91,356V352.9l3.63-3.11Z"/></g><g class="l"><path class="i" d="M169,349.79v9.33h-3.62L161.76,356V352.9l3.63-3.11Z"/></g><rect class="g" x="226.2" y="354.03" width="36.51" height="0.85"/><path class="i" d="M226.86,352.29v4.34H221.8v-4.34Z"/><path class="i" d="M257.91,356.63v-4.34H263v4.34Z"/><rect class="g" x="135.65" y="354.03" width="22.51" height="0.34"/><path class="i" d="M140.46,352.29v4.34H135.4v-4.34Z"/><path class="i" d="M153.5,356.63v-4.34h5.06v4.34Z"/><polygon class="g" points="84.54 347.46 111.54 361.46 289.54 361.46 307.54 347.46 84.54 347.46"/></svg>