<svg xmlns="http://www.w3.org/2000/svg" viewBox="0 0 85.7934 800.4385" preserveAspectRatio="none"><defs><style>.a{fill:#0a0a09;fill-opacity:0.8;}.a,.b,.c{stroke:aqua;}.a,.b,.c,.f,.g,.h{stroke-miterlimit:10;}.b,.c,.f,.h{fill:none;}.b{stroke-width:10.5px;}.c{stroke-width:1.5px;}.d,.e,.i,.j,.k{fill:aqua;}.e{opacity:0.68;isolation:isolate;}.f{stroke:#e67409;}.g{fill:#e6740a;stroke:#ea6d07;}.h{stroke:#000;}.h,.j{opacity:0.8;}.i{opacity:0.9;}.k{opacity:0.7;}</style></defs><path class="a" d="M78.93,54.1V64.4316H68.4464ZM60.7338,71.9316H78.93v-4H64.8768Zm-7.7813,7.5H78.93v-4H57.1118Z"/><circle class="b" cx="42.3404" cy="41.2518" r="23.601"/><path class="c" d="M41.3,54.1l3.034,9.103h-6.069Zm-12.442-13.048-9.103-3.035v6.069Zm25.49,0,9.103-3.035v6.069Z"/><path class="c" d="M81.0894,82.3038H46.9524s14.176-13.595,18.138-17.5l16-15.768Z"/><path class="c" d="M41.3,29.2168l3.034-9.103h-6.069Z"/><path class="d" d="M16.2374,619.1348l-.001-156.008L42.02,437.34v-25.781l25.784-25.786V283.9308L42.02,258.15V75.4358h3.138v181.415l25.784,25.78v104.441l-25.783,25.787V438.64l-25.784,25.786v153.41l25.784,25.787v131.14H42.02V644.9217Z"/><path class="e" d="M24.0774,405.4828h20.054l20.048-20.047V285.1838L44.1314,265.13H24.0774Z"/><path class="b" d="M44.9444,5.25a35.7576,35.7576,0,0,1,35.599,35.914"/><path class="b" d="M40.849,79.5983A35.7575,35.7575,0,0,1,5.25,43.6843"/><path class="f" d="M47.15,41.2518a6.3039,6.3039,0,0,0-6.3007-6.3007"/><path class="f" d="M35.112,40.597a6.29,6.29,0,0,0,6.3007,6.3007"/><line class="f" x1="41.2999" y1="34.6964" x2="41.2999" y2="47.4062"/><polygon class="g" points="5.552 2.86 2.359 5.801 5.552 5.771 5.552 2.86"/><line class="f" x1="38.2624" y1="5.382" x2="2.7545" y2="5.382"/><line class="f" x1="5.5588" y1="2.8602" x2="5.5588" y2="37.6048"/><path class="h" d="M7.7732,45.67C9.8355,63.7332,19.7183,73.6652,37.4624,76.43"/><path class="h" d="M3.24,45.3282c2.5162,22.039,13.206,33.3288,34.8555,36.7023"/><path class="h" d="M77.8778,38.7345c-2.0624-18.0633-11.9452-27.9953-29.6893-30.76"/><path class="h" d="M82.4113,39.0761C79.895,17.0371,69.2053,5.7473,47.5557,2.3739"/><polygon class="d" points="24.077 471.045 24.077 496.83 50.892 471.045 50.892 445.26 24.077 471.045"/><polygon class="i" points="24.077 509.168 24.077 534.953 50.892 509.168 50.892 483.383 24.077 509.168"/><polygon class="j" points="24.077 548.363 24.077 574.148 50.892 548.363 50.892 522.578 24.077 548.363"/><polygon class="k" points="24.077 586.87 24.077 612.655 50.892 586.87 50.892 561.085 24.077 586.87"/><polygon class="d" points="26.537 774.763 26.537 785.574 36.683 800.438 49.576 800.438 61.72 787.601 61.72 774.763 26.537 774.763"/></svg>