<svg xmlns="http://www.w3.org/2000/svg" xmlns:xlink="http://www.w3.org/1999/xlink" preserveAspectRatio="none" viewBox="0 0 684.7826 144">
  <defs>
    <style>
      .a {
        isolation: isolate;
      }

      .b {
        stroke: #252d80;
        stroke-width: 3px;
        fill: url(#a);
      }

      .b, .f {
        stroke-miterlimit: 10;
      }

      .c, .d {
        mix-blend-mode: color-dodge;
      }

      .c {
        fill: url(#b);
      }

      .d {
        fill: url(#c);
      }

      .e {
        fill: #f60;
      }

      .f {
        fill: none;
        stroke: #f60;
        stroke-width: 5px;
      }
    </style>
    <radialGradient id="a" cx="481.32584" cy="173.93937" r="68.79268" gradientTransform="translate(-1352.16755 -163.7699) scale(3.52157 1.35414)" gradientUnits="userSpaceOnUse">
      <stop offset="0" stop-color="#004866" stop-opacity="0.75"/>
      <stop offset="0.87631" stop-color="#041750"/>
    </radialGradient>
    <radialGradient id="b" cx="1450.25719" cy="772.00607" r="24.0029" gradientTransform="matrix(0.76501, 0, 0, -2.91631, -1052.24521, 2324.17728)" gradientUnits="userSpaceOnUse">
      <stop offset="0" stop-color="#fff"/>
      <stop offset="0.08867" stop-color="#f3f3f3"/>
      <stop offset="0.25118" stop-color="#d1d1d1"/>
      <stop offset="0.46927" stop-color="#9c9c9c"/>
      <stop offset="0.73456" stop-color="#515151"/>
      <stop offset="1"/>
    </radialGradient>
    <radialGradient id="c" cx="1437.99066" cy="670.28735" r="24.0029" gradientTransform="matrix(-0.79157, 0, 0, 2.77049, 1764.12692, -1783.75731)" gradientUnits="userSpaceOnUse">
      <stop offset="0" stop-color="#fff"/>
      <stop offset="0.08552" stop-color="#f7f7f7"/>
      <stop offset="0.2191" stop-color="#e1e1e1"/>
      <stop offset="0.38412" stop-color="#bcbcbc"/>
      <stop offset="0.57409" stop-color="#8a8a8a"/>
      <stop offset="0.78535" stop-color="#494949"/>
      <stop offset="1"/>
    </radialGradient>
  </defs>
  <g class="a">
    <g>
      <rect class="b" x="44.85284" y="6.76923" width="596" height="130"/>
      <path class="c" d="M75.57767,72.76351c0-38.65457-8.2195-69.99428-18.36012-69.99428-10.13917,0-18.36468,31.3397-18.3647,69.99428,0,38.66028,8.22546,70.00572,18.36463,70.00573C67.3581,142.76924,75.57765,111.42379,75.57767,72.76351Z"/>
      <path class="d" d="M606.85284,73.27466c0,36.72185,8.5049,66.49457,18.99763,66.49457,10.49122,0,19.00235-29.77271,19.00237-66.49456,0-36.72726-8.51107-66.50544-19.0023-66.50544C615.35781,6.76923,606.85286,36.5474,606.85284,73.27466Z"/>
      <polygon class="e" points="644.867 142.934 607.19 142.934 607.19 129.927 631.867 129.927 631.867 13.007 607.19 13.007 607.19 0 644.867 0 644.867 142.934"/>
      <line class="f" x1="655.0435" x2="655.0435" y2="144"/>
      <line class="f" x1="655.0435" y1="72.5326" x2="684.7826" y2="72.5326"/>
      <polygon class="e" points="38.916 142.934 76.593 142.934 76.593 129.927 51.916 129.927 51.916 13.007 76.593 13.007 76.593 0 38.916 0 38.916 142.934"/>
      <line class="f" x1="29.7392" x2="29.7392" y2="144"/>
      <line class="f" x1="29.7392" y1="72.5326" y2="72.5326"/>
    </g>
  </g>
</svg>
