<svg xmlns="http://www.w3.org/2000/svg" xmlns:xlink="http://www.w3.org/1999/xlink" preserveAspectRatio="none" viewBox="0 0 477.05267 248.76203">
  <defs>
    <style>
      .a {
        isolation: isolate;
      }

      .b {
        fill: none;
        stroke: #fff;
        stroke-miterlimit: 10;
        stroke-width: 2.26812px;
      }

      .c, .d, .e, .f {
        fill: #eb671b;
      }

      .c {
        opacity: 0.4;
      }

      .d {
        opacity: 0.6;
      }

      .e, .i {
        opacity: 0.8;
      }

      .g, .h, .j, .k, .l, .m, .n, .o, .p, .q, .r {
        mix-blend-mode: color-dodge;
      }

      .g {
        fill: url(#a);
      }

      .h {
        fill: url(#b);
      }

      .i {
        mix-blend-mode: overlay;
        fill: url(#c);
      }

      .j {
        fill: url(#d);
      }

      .k {
        fill: url(#e);
      }

      .l {
        fill: url(#f);
      }

      .m {
        fill: url(#g);
      }

      .n {
        fill: url(#h);
      }

      .o {
        fill: url(#i);
      }

      .p {
        fill: url(#j);
      }

      .q {
        fill: url(#k);
      }

      .r {
        fill: url(#l);
      }
    </style>
    <radialGradient id="a" cx="248.75796" cy="12.18256" r="16.83325" gradientTransform="translate(-491.15575 7.16154) scale(3.06755 0.34989)" gradientUnits="userSpaceOnUse">
      <stop offset="0" stop-color="#fff"/>
      <stop offset="0.08489" stop-color="#f6f6f6"/>
      <stop offset="0.22345" stop-color="#dedede"/>
      <stop offset="0.39849" stop-color="#b6b6b6"/>
      <stop offset="0.60312" stop-color="#7f7f7f"/>
      <stop offset="0.82983" stop-color="#393939"/>
      <stop offset="1"/>
    </radialGradient>
    <radialGradient id="b" cx="203.9974" cy="673.66752" r="16.83325" xlink:href="#a"/>
    <radialGradient id="c" cx="237.1185" cy="123.86091" r="175.75613" gradientUnits="userSpaceOnUse">
      <stop offset="0" stop-color="#0c295e"/>
      <stop offset="0.29256" stop-color="#0b275b"/>
      <stop offset="0.50999" stop-color="#092252"/>
      <stop offset="0.70256" stop-color="#061842"/>
      <stop offset="0.86052" stop-color="#020d2e"/>
    </radialGradient>
    <radialGradient id="d" cx="284.77086" cy="228.26234" r="16.83325" gradientTransform="translate(-206.56894 -13.20011) scale(1.61779 1.06144)" gradientUnits="userSpaceOnUse">
      <stop offset="0" stop-color="#fff"/>
      <stop offset="0.15204" stop-color="#fcfcfc"/>
      <stop offset="0.28116" stop-color="#f1f1f1"/>
      <stop offset="0.40192" stop-color="#e0e0e0"/>
      <stop offset="0.51766" stop-color="#c7c7c7"/>
      <stop offset="0.6298" stop-color="#a7a7a7"/>
      <stop offset="0.73923" stop-color="gray"/>
      <stop offset="0.8465" stop-color="#515151"/>
      <stop offset="0.94939" stop-color="#1d1d1d"/>
      <stop offset="1"/>
    </radialGradient>
    <radialGradient id="e" cx="259.75812" cy="34.48328" r="16.83325" gradientTransform="translate(-148.75484 -192.44119) rotate(25.7985) scale(1.61779 1.06144)" xlink:href="#d"/>
    <radialGradient id="f" cx="273.39581" cy="351.31568" r="16.83325" gradientTransform="matrix(0.01917, 1.61768, -1.06136, 0.01258, 385.70998, -324.4181)" xlink:href="#d"/>
    <radialGradient id="g" cx="338.92494" cy="-6.87122" r="16.83325" gradientTransform="matrix(-1.4327, 0.75141, -0.493, -0.94, 883.48527, -34.43537)" xlink:href="#d"/>
    <radialGradient id="h" cx="216.45519" cy="2.82911" r="16.83325" gradientTransform="matrix(-1.37399, 0.85405, -0.56035, -0.90148, 685.84903, -156.54124)" xlink:href="#d"/>
    <radialGradient id="i" cx="318.95943" cy="9.38807" r="16.83325" gradientTransform="matrix(-1.41675, -0.78107, 0.51246, -0.92953, 483.3433, 482.87268)" gradientUnits="userSpaceOnUse">
      <stop offset="0" stop-color="#fff"/>
      <stop offset="0.09577" stop-color="#f9f9f9"/>
      <stop offset="0.22011" stop-color="#e9e9e9"/>
      <stop offset="0.36016" stop-color="#cecece"/>
      <stop offset="0.51177" stop-color="#a9a9a9"/>
      <stop offset="0.67274" stop-color="#797979"/>
      <stop offset="0.83877" stop-color="#3f3f3f"/>
      <stop offset="1"/>
    </radialGradient>
    <radialGradient id="j" cx="138.91182" cy="322.01605" r="16.83325" gradientTransform="matrix(0.01017, -1.61776, 1.06142, 0.00667, 101.46907, 301.48751)" xlink:href="#i"/>
    <radialGradient id="k" cx="41.40023" cy="-113.93481" r="16.83325" gradientTransform="matrix(1.32628, -0.92641, 0.60782, 0.87018, 38.90801, 158.89188)" xlink:href="#i"/>
    <radialGradient id="l" cx="207.62209" cy="235.02311" r="16.83325" gradientTransform="matrix(-0.01234, -1.61774, 1.06141, -0.00809, 212.29064, 496.69126)" xlink:href="#i"/>
  </defs>
  <g class="a">
    <g>
      <polygon class="b" points="449.659 224.176 414.392 224.176 396.539 232.676 206.824 232.676 197.022 228.009 89.802 228.009 76.197 233.882 50.817 233.882 15.407 218.177 15.104 65.221 15.104 23.194 31.003 15.813 201.435 15.813 230.263 29.195 371.496 29.195 399.046 16.75 449.016 16.75 462.092 23.07 462.092 58.573 447.063 65.362 447.063 97.722 462.421 104.659 462.421 218.099 449.659 224.176"/>
      <polygon class="b" points="470.86 18.967 470.86 60.231 456.609 67.135 456.609 94.764 471.172 101.82 471.172 224.731 455.372 232.385 420.118 232.385 402.272 241.031 201.727 241.031 191.928 236.283 95.648 236.283 82.048 242.872 49.672 242.872 7.771 222.573 7.771 18.967 30.973 7.727 207.963 7.727 236.057 21.338 366.337 21.338 392.463 8.681 451.013 8.681 470.86 18.967"/>
      <g>
        <polygon class="c" points="352.832 15.43 370.089 15.43 386.857 7.419 369.089 7.55 352.832 15.43"/>
        <polygon class="d" points="329.689 15.43 346.947 15.43 363.714 7.419 345.946 7.55 329.689 15.43"/>
        <polygon class="e" points="306.547 15.43 323.804 15.43 340.571 7.419 322.804 7.55 306.547 15.43"/>
        <polygon class="f" points="283.404 15.43 300.661 15.43 317.429 7.419 299.661 7.55 283.404 15.43"/>
        <polygon class="f" points="260.261 15.43 277.519 15.43 294.286 7.419 276.518 7.55 260.261 15.43"/>
        <polygon class="f" points="237.119 15.43 254.376 15.43 271.143 7.419 253.376 7.55 237.119 15.43"/>
      </g>
      <g>
        <polygon class="f" points="152.408 246.878 169.665 246.878 186.433 238.867 168.665 238.999 152.408 246.878"/>
        <polygon class="f" points="129.265 246.878 146.523 246.878 163.29 238.867 145.522 238.999 129.265 246.878"/>
        <polygon class="f" points="106.123 246.878 123.38 246.878 140.147 238.867 122.38 238.999 106.123 246.878"/>
        <polygon class="f" points="82.98 246.878 100.237 246.878 117.005 238.867 99.237 238.999 82.98 246.878"/>
      </g>
      <path class="g" d="M323.559,11.42417c0,3.25273-23.11922,5.88976-51.6361,5.88976-28.51872,0-51.63763-2.637-51.63763-5.88976,0-3.25288,23.11891-5.88987,51.63763-5.88987C300.43976,5.5343,323.559,8.17129,323.559,11.42417Z"/>
      <path class="h" d="M186.25366,242.87227c0,3.25274-23.11921,5.88976-51.63609,5.88976-28.51872,0-51.63763-2.637-51.63763-5.88976,0-3.25287,23.11891-5.88987,51.63763-5.88987C163.13445,236.9824,186.25366,239.6194,186.25366,242.87227Z"/>
      <polygon class="i" points="394.62 230.686 205.254 230.686 195.543 226.402 88.114 226.402 74.761 232.292 48.663 231.221 13.764 214.622 13.46 22.926 29.241 15.43 199.792 15.43 228.318 28.816 369.735 28.816 397.655 16.5 447.424 16.5 460.17 22.926 460.17 57.731 445.603 64.692 445.603 96.82 460.777 103.781 460.777 216.228 448.031 222.118 412.828 222.118 394.62 230.686"/>
      <path class="j" d="M281.36358,229.08641c0,9.86756-12.1928,17.8673-27.23228,17.8673-15.04044,0-27.23309-7.99974-27.23309-17.8673,0-9.868,12.19265-17.86761,27.23309-17.86761C269.17078,211.2188,281.36358,219.21843,281.36358,229.08641Z"/>
      <path class="k" d="M238.18384,35.25377c-4.29444,8.884-18.75354,10.78006-32.294,4.23477C192.34844,32.94282,184.85258,20.43409,189.147,11.55c4.29462-8.88444,18.75352-10.78042,32.29489-4.23471C234.9824,13.86061,242.47845,26.36933,238.18384,35.25377Z"/>
      <path class="l" d="M18.39986,149.49771C8.533,149.61464.38934,137.51748.21113,122.47906c-.17822-15.03938,7.67648-27.326,17.54334-27.4429,9.86729-.11693,18.01084,11.98007,18.18906,27.01946C36.12174,137.094,28.26715,149.38078,18.39986,149.49771Z"/>
      <path class="m" d="M377.17787,239.34412c-4.58315-8.73861,2.49906-21.48626,15.81787-28.47161,13.31967-6.98579,27.833-5.56438,32.41614,3.17423,4.58335,8.739-2.49877,21.48647-15.81844,28.47226C396.27463,249.50435,381.76123,248.08311,377.17787,239.34412Z"/>
      <path class="n" d="M363.728,40.14855c-5.2092-8.38051.923-21.61141,13.696-29.55093,12.77384-7.94,27.3522-7.5825,32.5614.798,5.20942,8.38086-.92268,21.61159-13.69652,29.55162C383.51584,48.88677,368.9374,48.52941,363.728,40.14855Z"/>
      <path class="o" d="M12.42094,211.86744c4.76408-8.6413,19.304-9.7602,32.47448-2.49911,13.17137,7.26155,19.98653,20.1538,15.22246,28.79511-4.76428,8.64168-19.304,9.76056-32.47534,2.499C14.472,233.40135,7.65666,220.50912,12.42094,211.86744Z"/>
      <path class="p" d="M444.846,51.67734c9.86736.062,17.79032,12.30484,17.69582,27.344-.09452,15.04015-8.17072,27.18228-18.03808,27.12027-9.86778-.062-17.79064-12.30468-17.69613-27.34483C426.90208,63.75762,434.97818,51.61533,444.846,51.67734Z"/>
      <path class="q" d="M46.89,5.80067c5.65054,8.0895.23575,21.62983-12.09373,30.242-12.33028,8.61274-26.90687,9.03647-32.55741.947C-3.412,28.89981,2.00277,15.35966,14.333,6.74692,26.66252-1.86526,41.23918-2.28917,46.89,5.80067Z"/>
      <path class="r" d="M458.977,131.67758c9.86727-.07524,17.95975,12.05621,18.07444,27.09524.1147,15.04-7.79184,27.2933-17.6591,27.36855-9.86769.07525-17.96008-12.056-18.07477-27.096C441.20288,144.00629,449.10931,131.75283,458.977,131.67758Z"/>
    </g>
  </g>
</svg>
