<svg xmlns="http://www.w3.org/2000/svg" viewBox="0 0 308.636 422.458" preserveAspectRatio="none">
  <defs>
    <linearGradient id="a" x1="300.839" y1="129.457" x2="300.839" y2="13.457" gradientUnits="userSpaceOnUse">
      <stop offset="0" stop-color="#e77f00"/>
      <stop offset="1" stop-color="#e77f00" stop-opacity=".4"/>
    </linearGradient>
    <style>
      .h{opacity:.4}.b,.i,.l,.m{fill:#e77f00}.c,.e,.f,.p{fill:none}.c,.i,.l{stroke:#e77f00}.c,.e,.f,.i,.l,.m,.n,.p{stroke-miterlimit:10}.c{stroke-width:2px}.e,.f,.m{stroke:#00bbfd}.e,.m{stroke-width:.25px}.f,.n,.p{stroke-width:.5px}.j{opacity:.6}.k{opacity:.8}.l{stroke-opacity:.4}.n{fill:#3fa9f5;stroke:#fff}.p{stroke:#020202}.q{opacity:.2}
    </style>
  </defs>
  <path d="M307.738 154.178h-7v-22l6-5v-113l-10-6-9-6h-174l-5 3h-2l-10 5h-83l-12 12v371l17 29h48v-17h28v-6l13-11h197s2 1 2-.541l.068-138.292z" opacity=".4" fill="#00bbfd"/>
  <path class="b" d="M18.039 0H.201v17.835M294.02.071h14.516V9.55M21.536.957h34l3 3h50l-12 7h-85l10-10z"/>
  <path class="c" d="M307.59 170.821l.043-15.864h-7l-.049-22 6.549-5V12.231l-8.348-5.106-9.302-5.69-169.984-.179h-6.366l-4.5 2.439-50.652-.05-2.662-2.589-34.348-.047L1 21.35l.014 149.36.003 94.909.012 126.204 17.727 29.509h48.196l.077-16.509h28v9l14.507 7.634 26.302-.125 154.698.125 16.597-22.634.363-133.865.094-94.137z"/>
  <path fill="#1a1a1a" fill-opacity=".79" stroke-miterlimit="10" stroke="#e77f00" d="M109.536 421.457l-15.177-8.587.17-14.547 13-11h198.507l.202 11.355-16.202 21.779-180.5 1z"/>
  <path class="e" d="M304.029 388.823h-196l-9.5 8"/>
  <path class="f" d="M2.719 391.178v-368.5l10.642-10.877M97.665 11.823l9.688-5.866h2.091l5.585-3.134"/>
  <path class="c" d="M286.536 1.457l21 13"/>
  <path class="e" d="M305.029 15.823l-14-9-5-3.135M297.029 13.823l.5 115M292.029 74.823v22M292.029 105.823v20M299.029 35.823v4"/>
  <path d="M297.142 13.457l7.394 4.754-.599 106.11-6.401 5.136z" fill="url(#a)"/>
  <g class="h">
    <path class="i" d="M293.036 10.957l.205 24.093h2.295V12.957l-2.5-2z"/>
  </g>
  <g class="j">
    <path class="i" d="M293.241 42.577h2.295v21.131h-2.295z"/>
  </g>
  <g class="k">
    <path class="i" d="M293.241 75.234h2.295v21.131h-2.295z"/>
  </g>
  <path class="i" d="M293.241 105.892v20.565l2.295 2v-22.565h-2.295z"/>
  <path class="l" d="M299.036 35.957h4v4h-4zM299.036 65.957h4v4h-4z"/>
  <path class="e" d="M292.029 9.823v26M292.029 41.823v22M303.029 35.823l-3.878.093M299.212 65.979v4M303.212 65.979l-3.879.093"/>
  <path class="m" d="M62.367 396.823v20H20.855l-2.965-5h40.523v-5H14.925l-2.965-5h46.453v-5H8.994l-2.965-5h83v5H62.367z"/>
  <path class="n" d="M14.318 12.911L4.169 22.683l.149 18.228L6.416 23.49l7.902-10.579zM115.53 3.893l-5.288 3.297a.873.873 0 01-.463.132h-1.412a4.48 4.48 0 00-2.456.734l-7.382 4.837 6-2.57c.038-.017 2.966-1.979 3-2z"/>
  <path d="M96.914 401.496s11.478-11.965 12.115-11.898c7.789.813 10-1 0 1-3.289.658-11.713 8.522-11 10l-1 8z" fill="#0ff" stroke="#fff" stroke-width=".25" stroke-miterlimit="10"/>
  <path class="p" d="M146.505 402.918v5.181h5.126"/>
  <path class="m" d="M286.472 410.272h-16.128v-.923h15.682l3.529-3.023v-2.914l-3.529-3.024h-15.682v-.923h16.128l4.159 3.564v3.679l-4.159 3.564z"/>
  <g class="q">
    <path class="m" d="M270.788 402.06h2.072v5.615h-2.072z"/>
  </g>
  <g class="h">
    <path class="m" d="M274.075 402.06h2.072v5.615h-2.072z"/>
  </g>
  <g class="j">
    <path class="m" d="M277.358 402.06h2.072v5.615h-2.072z"/>
  </g>
  <g class="k">
    <path class="m" d="M280.645 402.06h2.072v5.615h-2.072z"/>
  </g>
  <path class="m" d="M283.929 402.06h2.072v5.615h-2.072zM124.118 410.272h-16.132l-4.156-3.564v-3.679l4.156-3.564h16.132v.923h-15.687l-3.524 3.024v2.914l3.524 3.023h15.687v.923z"/>
  <g class="q">
    <path class="m" d="M121.597 402.062h2.072v5.615h-2.072z"/>
  </g>
  <g class="h">
    <path class="m" d="M118.313 402.062h2.072v5.615h-2.072z"/>
  </g>
  <g class="j">
    <path class="m" d="M115.029 402.062h2.072v5.615h-2.072z"/>
  </g>
  <g class="k">
    <path class="m" d="M111.743 402.062h2.072v5.615h-2.072z"/>
  </g>
  <path class="m" d="M108.459 402.062h2.072v5.615h-2.072zM182.556 405.379a3.792 3.792 0 113.781 3.521 3.66 3.66 0 01-3.78-3.521z"/>
  <path class="m" d="M186.337 399.346a6.048 6.048 0 106.481 6.033 6.274 6.274 0 00-6.481-6.033zm0 11.431a5.412 5.412 0 115.8-5.398 5.614 5.614 0 01-5.8 5.398z"/>
  <g class="j">
    <path class="m" d="M197.242 399.775v10.188h3.96l3.961-3.397v-3.395l-3.96-3.396z"/>
  </g>
  <g class="k">
    <path class="m" d="M209.425 399.775v10.188h3.96l3.96-3.397v-3.395l-3.96-3.396z"/>
  </g>
  <g class="j">
    <path class="m" d="M176.447 399.775v10.188h-3.96l-3.96-3.397v-3.395l3.96-3.396z"/>
  </g>
  <g class="k">
    <path class="m" d="M164.264 399.775v10.188h-3.96l-3.96-3.397v-3.395l3.96-3.396z"/>
  </g>
  <path class="m" d="M226.748 404.407h39.894v.923h-39.894z"/>
  <path class="m" d="M227.465 402.498v4.741h-5.528v-4.74zM261.39 407.24v-4.742h5.528v4.741zM127.818 404.407h24.591v.367h-24.591z"/>
  <path class="m" d="M133.07 402.498v4.741h-5.528v-4.74zM147.317 407.24v-4.742h5.529v4.741z"/>
  <path class="p" d="M103.068 404.411v3l4 3.5 16.5.15M126.755 402.911v5.182h5.126M155.318 404.411v2.5l5 4h3.5M167.318 404.411v2.5l5 4h3.5M196.318 401.411v9.5h5.5M208.318 401.411v9.5h5.5M220.818 403.911v4.25h5.5M265.818 408.061h-5.5v-1.5h-32.517M269.068 409.536v1.75h16.25M260.318 402.814v1M269.068 399.536v1.75h16.25"/>
  <path d="M190.818 411.411c-.87.61-3.367.786-4.638.786-3.677 0-6.67-2.73-6.67-6.083 0-.068.026-.703-.042-.703-.65 0-.65 0-.731.5-.002.068-.011.135-.011.203 0 3.748 3.343 6.797 7.454 6.797a11.604 11.604 0 004.638-1.5c-.092-.06.117.182 0 0z"/>
  <circle cx="28.318" cy="4.911" r="3.5" fill="#186aff" stroke="#0026c5" stroke-width=".25" stroke-miterlimit="10"/>
  <circle cx="41.318" cy="4.911" r="3.5" fill="#ff2d4e" stroke="#83001f" stroke-width=".25" stroke-miterlimit="10"/>
  <circle cx="39.818" cy="4.411" r="1" fill="#ffeaed" stroke="#ff839e" stroke-width=".25" stroke-miterlimit="10"/>
  <circle cx="26.818" cy="4.411" r="1" fill="#7b9fff" stroke="#b9d3ff" stroke-width=".25" stroke-miterlimit="10"/>
</svg>
