<svg xmlns="http://www.w3.org/2000/svg" viewBox="0 0 308.636 363.458" preserveAspectRatio="none">
  <defs>
    <linearGradient id="a" x1="300.839" y1="129.457" x2="300.839" y2="13.457" gradientUnits="userSpaceOnUse">
      <stop offset="0" stop-color="#e77f00"/>
      <stop offset="1" stop-color="#e77f00" stop-opacity=".4"/>
    </linearGradient>
    <style>
      .a,.i,.l,.m{fill:#e77f00}.h{opacity:.4}.c,.e,.f,.p{fill:none}.c,.i,.l{stroke:#e77f00}.c,.e,.f,.i,.l,.m,.n,.p{stroke-miterlimit:10}.c{stroke-width:2px}.e,.f,.m{stroke:#00bbfd}.e,.m{stroke-width:.25px}.f,.n,.p{stroke-width:.5px}.j{opacity:.6}.k{opacity:.8}.l{stroke-opacity:.4}.n{fill:#3fa9f5;stroke:#fff}.p{stroke:#020202}.q{opacity:.2}
    </style>
  </defs>
  <path class="a" d="M18.039 0H.201v17.835"/>
  <path opacity=".4" fill="#00bbfd" d="M288.818 328.411h-179l-13 11-1.789 6.412h-28l.326 15.509H19.158L1.029 332.823 1.403 20.35 21.374.009l34.347.047 2.663 2.589 50.652.05 4.5-2.439h6.365l169.985.179 9.302 5.69 8.348 5.106v115.726l-6.55 5 .05 22h7l-1.218 174.454h-18z"/>
  <path class="a" d="M294.02.071h14.516V9.55M21.536.957h34l3 3h50l-12 7h-85l10-10z"/>
  <path class="c" d="M290.536 362.457l-154.698-.125-26.302.125-14.507-7.634v-9h-28l-.077 16.509H18.756L1.029 332.823 1 21.35 20.971 1.009l34.348.047 2.663 2.589 50.651.05 4.5-2.439h6.366l169.984.179 9.302 5.69 8.348 5.106v115.726l-6.549 5 .049 22h7l-.5 184.866-16.597 22.634z"/>
  <path fill="#1a1a1a" fill-opacity=".79" stroke-miterlimit="10" stroke="#e77f00" d="M109.536 362.457l-15.177-8.587.17-14.547 13-11h198.507l-.507 12-15.493 21.134-180.5 1z"/>
  <path class="e" d="M304.029 329.823h-196l-9.5 8"/>
  <path class="f" d="M3.296 332.823V22.29l9.467-9.467M97.665 11.823l9.688-5.866h2.091l5.585-3.134"/>
  <path class="c" d="M286.536 1.457l21 13"/>
  <path class="e" d="M305.029 15.823l-14-9-5-3.135M297.029 13.823l.5 115M292.029 74.823v22M292.029 105.823v20M299.029 35.823v4"/>
  <path d="M297.142 13.457l7.394 4.754-.599 106.11-6.401 5.136z" fill="url(#a)"/>
  <g class="h">
    <path class="i" d="M293.036 10.957l.205 24.093h2.295V12.957l-2.5-2z"/>
  </g>
  <g class="j">
    <path class="i" d="M293.241 42.577h2.295v21.131h-2.295z"/>
  </g>
  <g class="k">
    <path class="i" d="M293.241 75.234h2.295v21.131h-2.295z"/>
  </g>
  <path class="i" d="M293.241 105.892v20.565l2.295 2v-22.565h-2.295z"/>
  <path class="l" d="M299.036 35.957h4v4h-4zM299.036 65.957h4v4h-4z"/>
  <path class="e" d="M292.029 9.823v26M292.029 41.823v22M303.029 35.823l-3.878.093M299.212 65.979v4M303.212 65.979l-3.879.093"/>
  <path class="m" d="M62.367 337.823v20H20.855l-2.965-5h40.523v-5H14.925l-2.965-5h46.453v-5H8.994l-2.965-5h83v5H62.367z"/>
  <path class="n" d="M14.318 12.911L4.169 22.683l.149 18.228L6.416 23.49l7.902-10.579zM115.53 3.893l-5.288 3.297a.873.873 0 01-.463.132h-1.412a4.48 4.48 0 00-2.456.734l-7.382 4.837 6-2.57c.038-.017 2.966-1.979 3-2z"/>
  <path d="M96.914 342.496s11.478-11.965 12.115-11.898c7.789.813 10-1 0 1-3.289.658-11.713 8.522-11 10l-1 8z" fill="#0ff" stroke="#fff" stroke-width=".25" stroke-miterlimit="10"/>
  <path class="p" d="M146.505 343.918v5.181h5.126"/>
  <path class="m" d="M286.472 351.272h-16.128v-.923h15.682l3.529-3.023v-2.914l-3.529-3.024h-15.682v-.923h16.128l4.159 3.564v3.679l-4.159 3.564z"/>
  <g class="q">
    <path class="m" d="M270.788 343.06h2.072v5.615h-2.072z"/>
  </g>
  <g class="h">
    <path class="m" d="M274.075 343.06h2.072v5.615h-2.072z"/>
  </g>
  <g class="j">
    <path class="m" d="M277.358 343.06h2.072v5.615h-2.072z"/>
  </g>
  <g class="k">
    <path class="m" d="M280.645 343.06h2.072v5.615h-2.072z"/>
  </g>
  <path class="m" d="M283.929 343.06h2.072v5.615h-2.072zM124.118 351.272h-16.132l-4.156-3.564v-3.679l4.156-3.564h16.132v.923h-15.687l-3.524 3.024v2.914l3.524 3.023h15.687v.923z"/>
  <g class="q">
    <path class="m" d="M121.597 343.062h2.072v5.615h-2.072z"/>
  </g>
  <g class="h">
    <path class="m" d="M118.313 343.062h2.072v5.615h-2.072z"/>
  </g>
  <g class="j">
    <path class="m" d="M115.029 343.062h2.072v5.615h-2.072z"/>
  </g>
  <g class="k">
    <path class="m" d="M111.743 343.062h2.072v5.615h-2.072z"/>
  </g>
  <path class="m" d="M108.459 343.062h2.072v5.615h-2.072zM182.556 346.379a3.792 3.792 0 113.781 3.521 3.66 3.66 0 01-3.78-3.521z"/>
  <path class="m" d="M186.337 340.346a6.048 6.048 0 106.481 6.033 6.274 6.274 0 00-6.481-6.033zm0 11.431a5.412 5.412 0 115.8-5.398 5.614 5.614 0 01-5.8 5.398z"/>
  <g class="j">
    <path class="m" d="M197.242 340.775v10.188h3.96l3.961-3.397v-3.395l-3.96-3.396z"/>
  </g>
  <g class="k">
    <path class="m" d="M209.425 340.775v10.188h3.96l3.96-3.397v-3.395l-3.96-3.396z"/>
  </g>
  <g class="j">
    <path class="m" d="M176.447 340.775v10.188h-3.96l-3.96-3.397v-3.395l3.96-3.396z"/>
  </g>
  <g class="k">
    <path class="m" d="M164.264 340.775v10.188h-3.96l-3.96-3.397v-3.395l3.96-3.396z"/>
  </g>
  <path class="m" d="M226.748 345.407h39.894v.923h-39.894z"/>
  <path class="m" d="M227.465 343.498v4.741h-5.528v-4.74zM261.39 348.24v-4.742h5.528v4.741zM127.818 345.407h24.591v.367h-24.591z"/>
  <path class="m" d="M133.07 343.498v4.741h-5.528v-4.74zM147.317 348.24v-4.742h5.529v4.741z"/>
  <path class="p" d="M103.068 345.411v3l4 3.5 16.5.15M126.755 343.911v5.182h5.126M155.318 345.411v2.5l5 4h3.5M167.318 345.411v2.5l5 4h3.5M196.318 342.411v9.5h5.5M208.318 342.411v9.5h5.5M220.818 344.911v4.25h5.5M265.818 349.061h-5.5v-1.5h-32.517M269.068 350.536v1.75h16.25M260.318 343.814v1M269.068 340.536v1.75h16.25"/>
  <path d="M190.818 352.411c-.87.61-3.367.786-4.638.786-3.677 0-6.67-2.73-6.67-6.083 0-.068.026-.703-.042-.703-.65 0-.65 0-.731.5-.002.068-.011.135-.011.203 0 3.748 3.343 6.797 7.454 6.797a11.604 11.604 0 004.638-1.5c-.092-.06.117.182 0 0z"/>
  <circle cx="30.733" cy="5.314" r="3.5" fill="#186aff" stroke="#0026c5" stroke-width=".25" stroke-miterlimit="10"/>
  <circle cx="43.733" cy="5.314" r="3.5" fill="#ff2d4e" stroke="#83001f" stroke-width=".25" stroke-miterlimit="10"/>
  <circle cx="42.233" cy="4.814" r="1" fill="#ffeaed" stroke="#ff839e" stroke-width=".25" stroke-miterlimit="10"/>
  <circle cx="29.233" cy="4.814" r="1" fill="#7b9fff" stroke="#b9d3ff" stroke-width=".25" stroke-miterlimit="10"/>
</svg>
