<svg xmlns="http://www.w3.org/2000/svg" viewBox="10 0 281 36">
  <defs>
    <style>
      .a,.h{fill:#242424}.a,.g{stroke:#e67f09;stroke-miterlimit:10}.g{fill:none}
    </style>
  </defs>
  <path class="a" d="M190.5 1h100v34h-100z"/>
  <path class="a" d="M214.5.5l-25 35H10.61l.25-35H214.5z"/>
  <path fill="none" d="M0 3.5h277"/>
  <path opacity=".4" fill="#e67f09" d="M195.88 36l25.88-36h14.37l-25.91 36"/>
  <path fill="#e67f09" d="M291 0v36h-39.94l25.89-36H291z"/>
  <path opacity=".6" fill="#e67f09" d="M214.38 36l25.88-36h14.37l-25.91 36"/>
  <path opacity=".8" fill="#e67f09" d="M232.88 36l25.88-36h14.37l-25.91 36"/>
  <path class="g" d="M214.5.5H291M189.5 35.5H291"/>
  <path class="a" d="M281 34.5v-33h5v10l2 2v8l-2 2v11"/>
  <path class="h" d="M259 32.5h7v2h-7zM270 32.5h7v2h-7z"/>
</svg>