<svg xmlns="http://www.w3.org/2000/svg" viewBox="0 0 308.335 223.45">
  <defs>
    <linearGradient id="a" x1="300.638" y1="129.449" x2="300.638" y2="13.449" gradientUnits="userSpaceOnUse">
      <stop offset="0" stop-color="#e77f00"/>
      <stop offset="1" stop-color="#e77f00" stop-opacity=".4"/>
    </linearGradient>
    <style>
      .a,.h,.k,.l{fill:#e77f00}.g{opacity:.4}.c,.d,.e{fill:none}.c,.h,.k{stroke:#e77f00}.c,.d,.e,.h,.k,.l{stroke-miterlimit:10}.c{stroke-width:2px}.d,.e,.l{stroke:#00bbfd}.d{stroke-width:.5px}.e,.l{stroke-width:.25px}.j{opacity:.8}.k{stroke-opacity:.4}.p{opacity:.2}.q{opacity:.6}
    </style>
  </defs>
  <path class="a" d="M17.838.992H0v17.835"/>
  <path opacity=".4" fill="#00bbfd" d="M307.509 199.36v-44h-7v-22l6-5-.174-115.137-8.348-5.106-9.302-5.69L118.7 2.248h-6.365l-4.5 2.438-50.652-.05-2.663-2.588L20.173 2 1.509 21.36v171l18 30h48v-16h28v8l14 8h181"/>
  <path class="a" d="M293.819.063h14.516v9.479M21.335.949h34l3 3h50l-12 7h-85l10-10z"/>
  <path class="c" d="M1.229 179.644l-.02 13.171 17.747 29.509h48.197l.077-16.509h28v9l14.507 7.634 26.302-.125 154.698.125 16.597-22.634v-44.866h-6.902l-.049-22 6.549-5V12.223l-8.348-5.106-9.302-5.69-169.984-.179h-6.366l-4.5 2.439-50.651-.05-2.663-2.589-34.348-.047L1.209 21.342v136.48l.02 21.822z"/>
  <path class="d" d="M3.095 177.86V22.282l9.467-9.467M97.464 11.815l9.688-5.866h2.092l5.584-3.134"/>
  <path class="c" d="M286.335 1.449l21 13"/>
  <path class="e" d="M304.828 15.815l-14-9-5-3.135M296.828 13.815l.5 115M291.828 74.814v22M291.828 105.814v20M298.828 35.815v4"/>
  <path d="M296.941 13.449l7.394 4.754-.599 106.11-6.4 5.136z" fill="url(#a)"/>
  <g class="g">
    <path class="h" d="M292.835 10.949l.205 24.093h2.295V12.949l-2.5-2z"/>
  </g>
  <path class="h" d="M293.04 42.569h2.295V63.7h-2.295z" opacity=".6"/>
  <g class="j">
    <path class="h" d="M293.04 75.226h2.295v21.131h-2.295z"/>
  </g>
  <path class="h" d="M293.04 105.884v20.565l2.295 2v-22.565h-2.295z"/>
  <path class="k" d="M298.835 35.949h4v4h-4zM298.835 65.949h4v4h-4z"/>
  <path class="e" d="M291.828 9.815v26M291.828 41.815v22M302.828 35.815l-3.878.093M299.01 65.971v4M303.01 65.971l-3.878.093"/>
  <path class="l" d="M62.567 197.815v20H21.056l-2.966-5h40.524v-5H15.125l-2.965-5h46.454v-5H9.195l-2.965-5h83v5H62.567z"/>
  <path stroke="#fff" stroke-width=".5" stroke-miterlimit="10" fill="none" d="M13.328 13.315l-9 9v7l1-7 8-9z"/>
  <path d="M115.328 3.885l-5.288 3.297a.873.873 0 01-.462.132h-1.412a4.48 4.48 0 00-2.456.734l-7.382 4.837 6-2.57c.038-.017 2.966-1.979 3-2z" fill="#fff" stroke="#fff" stroke-width=".5" stroke-miterlimit="10"/>
  <path fill-opacity=".25" stroke-miterlimit="10" stroke="#e77f00" fill="#e77f00" d="M110.737 222.449l-15.178-8.587.171-14.547 13-11 198.279.545-.279 11.455-15.493 21.134-180.5 1z"/>
  <path class="l" d="M292.399 210.776h-16.128v-.923h15.682l3.529-3.024v-2.914l-3.529-3.023h-15.682v-.923h16.128l4.16 3.564v3.679l-4.16 3.564z"/>
  <g class="p">
    <path class="l" d="M276.716 202.564h2.072v5.615h-2.072z"/>
  </g>
  <g class="g">
    <path class="l" d="M280.002 202.564h2.072v5.615h-2.072z"/>
  </g>
  <g class="q">
    <path class="l" d="M283.286 202.564h2.072v5.615h-2.072z"/>
  </g>
  <g class="j">
    <path class="l" d="M286.572 202.564h2.072v5.615h-2.072z"/>
  </g>
  <path class="l" d="M289.856 202.564h2.072v5.615h-2.072zM122.045 210.776h-16.132l-4.155-3.564v-3.679l4.155-3.564h16.132v.923h-15.686l-3.525 3.023v2.914l3.525 3.024h15.686v.923z"/>
  <g class="p">
    <path class="l" d="M119.525 202.565h2.072v5.615h-2.072z"/>
  </g>
  <g class="g">
    <path class="l" d="M116.241 202.565h2.072v5.615h-2.072z"/>
  </g>
  <g class="q">
    <path class="l" d="M112.957 202.565h2.072v5.615h-2.072z"/>
  </g>
  <g class="j">
    <path class="l" d="M109.671 202.565h2.072v5.615h-2.072z"/>
  </g>
  <path class="l" d="M106.387 202.565h2.072v5.615h-2.072zM184.467 205.372a3.803 3.803 0 113.757 3.224 3.523 3.523 0 01-3.757-3.224z"/>
  <path class="l" d="M188.224 210.895c-3.55 0-6.437-2.478-6.437-5.523s2.887-5.522 6.437-5.522c3.551 0 6.44 2.477 6.44 5.522s-2.888 5.523-6.44 5.523zm0-10.465c-3.175 0-5.76 2.217-5.76 4.942s2.585 4.942 5.76 4.942c3.18 0 5.764-2.217 5.764-4.942s-2.585-4.942-5.764-4.942z"/>
  <g class="q">
    <path class="l" d="M199.17 200.278v10.188h3.96l3.96-3.396v-3.395l-3.96-3.397z"/>
  </g>
  <g class="j">
    <path class="l" d="M211.352 200.278v10.188h3.96l3.961-3.396v-3.395l-3.96-3.397z"/>
  </g>
  <g class="q">
    <path class="l" d="M178.375 200.278v10.188h-3.961l-3.96-3.396v-3.395l3.96-3.397z"/>
  </g>
  <g class="j">
    <path class="l" d="M166.192 200.278v10.188h-3.96l-3.962-3.396v-3.395l3.96-3.396z"/>
  </g>
  <path class="l" d="M228.675 204.911h39.894v.923h-39.894z"/>
  <path class="l" d="M229.393 203.002v4.74h-5.529v-4.74zM263.317 207.743v-4.741h5.528v4.74zM129.746 204.911h24.591v.367h-24.591z"/>
  <path class="l" d="M134.998 203.002v4.74h-5.528v-4.74zM149.244 207.743v-4.741h5.529v4.74z"/>
  <path d="M97.393 200.258s11.48-9.819 12.116-9.899c8-1 10-1 0 1-3.29.658-11.714 8.522-11 10l-1 6z" fill="#fff" stroke="#fff" stroke-width=".25" stroke-miterlimit="10"/>
  <path class="e" d="M305.509 189.36h-196l-10.5 9"/>
</svg>
